<svg id="adobe" xmlns="http://www.w3.org/2000/svg" width="54" height="54" viewBox="0 0 54 54">
  <g id="Layer_2" data-name="Layer 2" transform="translate(0 0)">
    <g id="Adobe_Acrobat" data-name="Adobe Acrobat" transform="translate(0 0)">
      <path id="shade" d="M41.525,1.534A10.953,10.953,0,0,1,52.466,12.475v29.05A10.953,10.953,0,0,1,41.525,52.466H12.475A10.953,10.953,0,0,1,1.534,41.525V12.475A10.953,10.953,0,0,1,12.475,1.534Zm0-1.534H12.475A12.472,12.472,0,0,0,0,12.475v29.05A12.472,12.472,0,0,0,12.475,54h29.05A12.472,12.472,0,0,0,54,41.525V12.475A12.472,12.472,0,0,0,41.525,0Z" transform="translate(0 0)"/>
      <path id="icon" d="M47.217,71.2a1.936,1.936,0,0,1-1.691-1.1,3.157,3.157,0,0,1,.11-3.139c1.27-1.957,3.737-3.605,7.143-4.771l.114-.04.055-.107a62.109,62.109,0,0,0,3.013-7.084l.049-.132-.074-.123a12.979,12.979,0,0,1-1.448-3.01c-1.092-3.593-.172-6.4,1.362-7.032a1.862,1.862,0,0,1,.739-.15,2.007,2.007,0,0,1,1.316.515,4.121,4.121,0,0,1,.838,1.052c.666,1.209.334,4.044-.92,7.977-.021.077-.049.15-.071.224s-.055.163-.077.236l-.037.132.077.117.077.11.068.1a46.636,46.636,0,0,0,4.6,5.446l.089.1h1.108c.482,0,.92,0,1.3.034,3.424.2,5.664,1.022,6.305,2.32a2.166,2.166,0,0,1-.117,2A2.952,2.952,0,0,1,68.97,66.4a3.029,3.029,0,0,1-.374.025,6.428,6.428,0,0,1-3.887-1.8l-.052-.043-.212-.2c-.42-.384-1.292-1.184-2.4-2.292l-.092-.1h-.135a29.022,29.022,0,0,0-3.777.414,27.755,27.755,0,0,0-4.019.92l-.123.037-.058.114c-.574,1.135-1.194,2.234-1.841,3.265C50.088,69.737,48.524,71.2,47.217,71.2Zm3.8-6.732a9.783,9.783,0,0,0-4.151,3.3,1.712,1.712,0,0,0-.252.859,1.506,1.506,0,0,0,.153.669c.138.307.307.451.472.451h.025c.193-.025,1.283-.325,3.547-3.921.206-.307.4-.614.577-.92l.506-.841Zm14.62-1.009a5.766,5.766,0,0,0,3,1.482H68.8a1.491,1.491,0,0,0,1.074-.819.706.706,0,0,0,.061-.632c-.276-.614-1.961-1.325-5.075-1.506h-.835l.868.813a9.512,9.512,0,0,0,.742.675ZM56.82,56.807c-.528,1.368-1.135,2.8-1.8,4.234l-.258.561.614-.147c.92-.227,1.841-.408,2.761-.549.614-.1,1.255-.181,1.915-.242l.589-.049-.4-.451c-.534-.583-1.227-1.362-1.921-2.206l-1.31-1.638Zm-.565-10.7c-.614.506-1.252,2.332-.387,5.167a8.5,8.5,0,0,0,.405,1.062l.337.718.221-.764c.571-2,1.138-4.569.614-5.492-.166-.307-.506-.825-.874-.825h-.307Z" transform="translate(-31.305 -30.853)"/>
    </g>
  </g>
</svg>
