<svg xmlns="http://www.w3.org/2000/svg" width="38.598" height="36.897" viewBox="0 0 38.598 36.897">
  <g id="Camera" transform="translate(-2.039 -1.792)">
    <path id="Path_11281" data-name="Path 11281" d="M21.758,15.658a6.305,6.305,0,1,0-6.305,6.305A6.306,6.306,0,0,0,21.758,15.658Z" transform="translate(5.886 6.341)" fill="none" stroke="#fff" stroke-linecap="round" stroke-linejoin="round" stroke-width="2.5" fill-rule="evenodd"/>
    <path id="Path_11282" data-name="Path 11282" d="M21.338,37.439c16.128,0,18.049-4.832,18.049-15.3,0-7.339-.971-11.267-7.084-12.955a3.862,3.862,0,0,1-1.688-1.07c-.815-.893-1.41-3.634-3.377-4.463s-9.865-.789-11.8,0-2.562,3.571-3.376,4.463a3.851,3.851,0,0,1-1.688,1.07C4.26,10.869,3.289,14.8,3.289,22.136,3.289,32.607,5.21,37.439,21.338,37.439Z" transform="translate(0 0)" fill="none" stroke="#fff" stroke-linecap="round" stroke-linejoin="round" stroke-width="2.5" fill-rule="evenodd"/>
    <path id="Path_11283" data-name="Path 11283" d="M17.2,9h.018" transform="translate(13.981 5.986)" fill="none" stroke="#fff" stroke-linecap="round" stroke-linejoin="round" stroke-width="2.5"/>
  </g>
</svg>
