<svg xmlns="http://www.w3.org/2000/svg" width="102.75" height="102.75" viewBox="0 0 102.75 102.75">
  <g id="consulting" transform="translate(0)">
    <path id="Path_31898" data-name="Path 31898" d="M67.455,460.428H2.088A2.089,2.089,0,0,1,0,458.34v-8.771a2.089,2.089,0,0,1,2.088-2.088H67.455Zm0,0" transform="translate(0 -357.678)" fill="#e8b134"/>
    <path id="Path_31899" data-name="Path 31899" d="M62.861,447.48A16.655,16.655,0,0,0,61.4,454.3v.067a1.67,1.67,0,0,1-1.671,1.671H0v2.3a2.089,2.089,0,0,0,2.088,2.088H67.455V447.48Zm0,0" transform="translate(0 -357.678)" fill="#d6a22b"/>
    <path id="Path_31900" data-name="Path 31900" d="M393.219,322.005a8.771,8.771,0,1,0-17.543,0v4.178a8.771,8.771,0,1,0,17.543,0Zm0,0" transform="translate(-300.284 -250.373)" fill="#feccc1"/>
    <path id="Path_31901" data-name="Path 31901" d="M412.311,313.234a8.835,8.835,0,0,0-1.776.18,8.774,8.774,0,0,1,7,8.591v4.177a8.774,8.774,0,0,1-7,8.591,8.777,8.777,0,0,0,10.547-8.591v-4.177a8.772,8.772,0,0,0-8.771-8.771Zm0,0" transform="translate(-328.148 -250.373)" fill="#f9b3a7"/>
    <path id="Path_31902" data-name="Path 31902" d="M363.939,429.228v-4.035a12.531,12.531,0,0,0-8.42-11.837l-4.472-1.552a13.453,13.453,0,0,0-4.414-.745h-2.56a13.45,13.45,0,0,0-4.414.745l-4.472,1.552a12.531,12.531,0,0,0-8.42,11.837v6.123h35.085a2.089,2.089,0,0,0,2.088-2.088Zm0,0" transform="translate(-261.19 -328.566)" fill="#484848"/>
    <path id="Path_31903" data-name="Path 31903" d="M465.378,420.884l-1.171-.407a12.533,12.533,0,0,1,5,10.014v8.353h2.506a2.089,2.089,0,0,0,2.088-2.088v-4.035a12.531,12.531,0,0,0-8.42-11.837Zm0,0" transform="translate(-371.049 -336.094)"/>
    <path id="Path_31904" data-name="Path 31904" d="M110.964,353.744l-3.066-1.065v.02l-7.1,12.322L93.7,352.7l0-.02-3.064,1.064a12.531,12.531,0,0,0-8.42,11.837V371.7h37.173v-6.123a12.53,12.53,0,0,0-8.42-11.837Zm0,0" transform="translate(-65.713 -281.902)" fill="#484848"/>
    <path id="Path_31905" data-name="Path 31905" d="M220.823,356.364l-1.171-.407a12.533,12.533,0,0,1,5,10.014v8.353h4.594V368.2a12.53,12.53,0,0,0-8.42-11.837Zm0,0" transform="translate(-175.572 -284.522)"/>
    <path id="Path_31906" data-name="Path 31906" d="M139.436,347.788l7.1,12.322,7.1-12.322v-.02l-3.55-1.233h-7.1l-3.553,1.234Zm0,0" transform="translate(-111.452 -276.991)" fill="#ddf5ff"/>
    <path id="Path_31907" data-name="Path 31907" d="M148.664,257.486a8.771,8.771,0,0,0-17.543,0v4.177a8.771,8.771,0,0,0,17.543,0Zm0,0" transform="translate(-104.808 -198.802)" fill="#feccc1"/>
    <path id="Path_31908" data-name="Path 31908" d="M167.759,248.715a8.827,8.827,0,0,0-1.775.18,8.774,8.774,0,0,1,7,8.592v4.177a8.774,8.774,0,0,1-7,8.592,8.78,8.78,0,0,0,10.546-8.592v-4.177a8.771,8.771,0,0,0-8.771-8.771Zm0,0" transform="translate(-132.674 -198.802)" fill="#f9b3a7"/>
    <path id="Path_31909" data-name="Path 31909" d="M53.045,0H8.353A8.354,8.354,0,0,0,0,8.353v21.72a8.354,8.354,0,0,0,8.353,8.353h4.595l7.59,7.59a1.671,1.671,0,0,0,2.853-1.181V38.427H53.046A8.354,8.354,0,0,0,61.4,30.073V8.353A8.353,8.353,0,0,0,53.046,0Zm0,0" transform="translate(0 0)" fill="#8db0ff"/>
    <path id="Path_31910" data-name="Path 31910" d="M53.045,0H8.353A8.354,8.354,0,0,0,0,8.353v21.72a8.354,8.354,0,0,0,8.353,8.353h4.595l7.59,7.59a1.671,1.671,0,0,0,2.853-1.181V38.427H53.046A8.354,8.354,0,0,0,61.4,30.073V8.353A8.353,8.353,0,0,0,53.046,0Zm0,0" transform="translate(0 0)" fill="#666"/>
    <path id="Path_31911" data-name="Path 31911" d="M8.353,137.393A8.354,8.354,0,0,1,0,129.039v4.178a8.354,8.354,0,0,0,8.353,8.353h4.595l7.59,7.59a1.671,1.671,0,0,0,2.853-1.181v-.143l-9.219-9.219a4.178,4.178,0,0,0-2.954-1.223Zm0,0" transform="translate(0 -103.143)" fill="#484848"/>
    <path id="Path_31912" data-name="Path 31912" d="M146.209,0h-5.221a8.346,8.346,0,0,1,7.062,3.891,2.09,2.09,0,0,1-1.763,3.21h-3.419a12.531,12.531,0,0,0-12.531,12.53V32.162a2.088,2.088,0,0,1-2.088,2.088h-7.518a4.176,4.176,0,0,0-4.177,4.177h29.655a8.354,8.354,0,0,0,8.353-8.353V8.354A8.353,8.353,0,0,0,146.209,0Zm0,0" transform="translate(-93.164 0)" fill="#484848"/>
    <path id="Path_31913" data-name="Path 31913" d="M214.4,56.2H259.1a8.354,8.354,0,0,1,8.353,8.353v21.72a8.354,8.354,0,0,1-8.353,8.353H237.585v6.409a1.671,1.671,0,0,1-2.852,1.181l-7.59-7.59H214.4a8.354,8.354,0,0,1-8.353-8.353V64.549A8.353,8.353,0,0,1,214.4,56.2Zm0,0" transform="translate(-164.7 -44.918)" fill="#e8b134"/>
    <g id="Group_41054" data-name="Group 41054" transform="translate(41.351 11.277)">
      <path id="Path_31914" data-name="Path 31914" d="M214.4,191.506a8.354,8.354,0,0,1-8.353-8.354v4.595A8.354,8.354,0,0,0,214.4,196.1h12.74l7.59,7.59a1.671,1.671,0,0,0,2.852-1.181v-.561l-9.219-9.219a4.176,4.176,0,0,0-2.954-1.223Zm0,0" transform="translate(-206.051 -157.674)" fill="#d6a22b"/>
      <path id="Path_31915" data-name="Path 31915" d="M384.7,56.195h-5.221a8.354,8.354,0,0,1,8.353,8.353v21.3a4.177,4.177,0,0,1-4.177,4.177h-16.29a4.176,4.176,0,0,0-4.177,4.177v.418H384.7a8.354,8.354,0,0,0,8.353-8.354V64.548a8.354,8.354,0,0,0-8.353-8.353Zm0,0" transform="translate(-331.653 -56.194)" fill="#d6a22b"/>
    </g>
  </g>
</svg>
