<svg xmlns="http://www.w3.org/2000/svg" width="66.224" height="67.331" viewBox="0 0 66.224 67.331">
  <g id="Group_43197" data-name="Group 43197" transform="translate(-1184.46 -282.895)">
    <g id="Group_41308" data-name="Group 41308">
      <path id="Path_32199" data-name="Path 32199" d="M9876.735,13253c23.895-.229,17.3,0,23.067,0s-.66,6.515-.66,6.515l-23.4-.687Z" transform="translate(-8689 -12911)" fill="#d6a22b"/>
      <path id="Path_32200" data-name="Path 32200" d="M9875.744,13258.828Z" transform="translate(-8679.857 -12915)" fill="#d6a22b"/>
      <path id="Path_32201" data-name="Path 32201" d="M9876.682,13253c22.6-.229,14.623-2.669,20.078-2.669,2.6,0,4.991,5.693,3.825,7.963-.977,1.919-3.917,3.1-3.917,3.1l-17.02,1.788-3.9-4.354Z" transform="translate(5276.882 -15707.332) rotate(51)" fill="#d6a22b"/>
      <path id="Path_32202" data-name="Path 32202" d="M9875.367,13255.732c1.78-.029,3.883-2.654,5.657-2.714,17.541-.588,13.082.05,18.308.05,5.654,0-.647,10.924-.647,10.924l-22.941-1.152Z" transform="translate(3889.514 -16026.997) rotate(46)" fill="#d6a22b"/>
      <path id="Path_32203" data-name="Path 32203" d="M9877.121,13251.2c5.373-.038,10.647-2.863,14.364-3.183,17.087-1.466,11.824-2.948,18.39-2.948,1.391,0,3.1-.426,4.929.856,2.332,1.628,4.461,5.6,3.576,7.869-1.384,3.552-10.75,5.725-10.75,5.725l-30.672-.774Z" transform="translate(5302.013 -15702.445) rotate(51)" fill="#d6a22b"/>
    </g>
    <g id="svgexport-6_1_" data-name="svgexport-6 (1)" transform="translate(1185.204 284)">
      <g id="Group_41310" data-name="Group 41310" transform="translate(26.955 26.781)">
        <g id="Group_41309" data-name="Group 41309">
          <path id="Path_32204" data-name="Path 32204" d="M.4,217.811l5.391-5.391a1.35,1.35,0,0,1,1.817-.084l27.355,22.8a7.278,7.278,0,0,1,.485,10.735l-1.6,1.6a7.28,7.28,0,0,1-10.738-.485L.311,219.628A1.35,1.35,0,0,1,.4,217.811Zm24.781,27.444a4.712,4.712,0,0,0,6.763.307l1.6-1.6a4.582,4.582,0,0,0-.307-6.76L6.818,215.194l-3.649,3.652Z" transform="translate(0 -212.025)"/>
        </g>
      </g>
      <g id="Group_41312" data-name="Group 41312" transform="translate(8.088 7.915)">
        <g id="Group_41311" data-name="Group 41311">
          <path id="Path_32205" data-name="Path 32205" d="M191.124,79.264,207.3,63.092a1.349,1.349,0,0,1,1.906,0l13.477,13.477a1.349,1.349,0,0,1,0,1.906L206.506,94.646a1.35,1.35,0,0,1-1.906,0L191.124,81.17A1.349,1.349,0,0,1,191.124,79.264Zm14.428,12.523L219.819,77.52,208.248,65.949,193.981,80.216Z" transform="translate(-190.73 -62.698)"/>
        </g>
      </g>
      <g id="Group_41314" data-name="Group 41314" transform="translate(0.101 23.389)">
        <g id="Group_41313" data-name="Group 41313">
          <path id="Path_32206" data-name="Path 32206" d="M315.183,186.885a6.179,6.179,0,0,1,8.539,0l12.234,12.234a6.048,6.048,0,0,1-.005,8.544,8.088,8.088,0,0,1-11.434,0l-9.339-9.339A8.1,8.1,0,0,1,315.183,186.885Zm1.9,9.531,9.339,9.339a5.518,5.518,0,0,0,7.628-.005,3.344,3.344,0,0,0,0-4.728l-12.234-12.234a3.345,3.345,0,0,0-4.733.005A5.394,5.394,0,0,0,317.083,196.416Z" transform="translate(-312.815 -185.173)"/>
        </g>
      </g>
      <g id="Group_41316" data-name="Group 41316" transform="translate(23.51 0)">
        <g id="Group_41315" data-name="Group 41315">
          <path id="Path_32207" data-name="Path 32207" d="M129.3,2.343a8.28,8.28,0,0,1,11.434,0l9.339,9.339a8.1,8.1,0,0,1-.005,11.439,6.039,6.039,0,0,1-8.539,0L129.3,10.887A6.048,6.048,0,0,1,129.3,2.343Zm1.9,6.639,12.234,12.234a3.417,3.417,0,0,0,4.733-.005,5.394,5.394,0,0,0,0-7.622l-9.339-9.342a5.391,5.391,0,0,0-7.628.008,3.345,3.345,0,0,0,0,4.728Z" transform="translate(-127.535 -0.053)"/>
        </g>
      </g>
      <g id="Group_41318" data-name="Group 41318" transform="translate(0 56.429)">
        <g id="Group_41317" data-name="Group 41317">
          <path id="Path_32208" data-name="Path 32208" d="M285.473,446.682h15.835a6.748,6.748,0,0,1,6.738,6.738,1.348,1.348,0,0,1-1.348,1.348H280.083a1.347,1.347,0,0,1-1.348-1.348A6.748,6.748,0,0,1,285.473,446.682Zm19.646,5.391a4.05,4.05,0,0,0-3.811-2.7H285.473a4.054,4.054,0,0,0-3.814,2.7Z" transform="translate(-278.735 -446.682)"/>
        </g>
      </g>
    </g>
  </g>
</svg>
