<svg id="Group_43196" data-name="Group 43196" xmlns="http://www.w3.org/2000/svg" width="86.646" height="105.832" viewBox="0 0 86.646 105.832">
  <g id="orders" transform="translate(1.745 1.765)">
    <g id="_29-Check_List" data-name="29-Check List">
      <rect id="Rectangle_17936" data-name="Rectangle 17936" width="14.102" height="7.114" rx="1" transform="translate(63.552 24.661)" fill="#f2f2f2"/>
      <path id="Path_32075" data-name="Path 32075" d="M56.638,6l-8.819,8.819H39L47.819,6Z" transform="translate(22.734 2.819)" fill="#f2f2f2"/>
      <path id="Path_32077" data-name="Path 32077" d="M44.347,6l-8.819,8.819H33.764A1.764,1.764,0,0,1,32,13.055V7.764A1.764,1.764,0,0,1,33.764,6Z" transform="translate(17.387 2.819)" fill="#f2f2f2"/>
      <path id="Path_32079" data-name="Path 32079" d="M54.331,33.4a3.528,3.528,0,0,1,0,4.992l-3.757,3.739L45.6,37.155,49.339,33.4a3.842,3.842,0,0,1,1.164-.776A3.538,3.538,0,0,1,54.331,33.4Z" transform="translate(27.776 22.956)" fill="#fff"/>
      <path id="Path_32080" data-name="Path 32080" d="M60.641,40.812,40.181,61.255,31.45,65.012l3.757-8.731,21.2-21.2,4.974,4.974Z" transform="translate(16.967 25.031)" fill="#dce1eb"/>
      <path id="Path_32081" data-name="Path 32081" d="M23.439,49.619v3.528a5.292,5.292,0,0,1-5.292,5.292H14.619a5.279,5.279,0,0,1-3.74-1.552l.212-.211L21.675,46.092l.212-.212a5.279,5.279,0,0,1,1.552,3.739Z" transform="translate(1.255 33.281)" fill="#f2f2f2"/>
      <path id="Path_32082" data-name="Path 32082" d="M18.819,45a5.279,5.279,0,0,1,3.74,1.552l-.212.211L11.764,57.347l-.212.212A5.279,5.279,0,0,1,10,53.819V50.292A5.292,5.292,0,0,1,15.292,45Z" transform="translate(0.583 32.609)" fill="#f2f2f2"/>
      <path id="Path_32083" data-name="Path 32083" d="M23.439,37.619v3.528a5.292,5.292,0,0,1-5.292,5.292H14.619a5.279,5.279,0,0,1-3.74-1.553l.212-.211L21.675,34.092l.212-.212a5.279,5.279,0,0,1,1.552,3.739Z" transform="translate(1.255 24.115)" fill="#f2f2f2"/>
      <path id="Path_32084" data-name="Path 32084" d="M18.819,33a5.279,5.279,0,0,1,3.74,1.553l-.212.211L11.764,45.347l-.212.212A5.279,5.279,0,0,1,10,41.819V38.292A5.292,5.292,0,0,1,15.292,33Z" transform="translate(0.583 23.443)" fill="#f2f2f2"/>
      <path id="Path_32085" data-name="Path 32085" d="M23.439,25.619v3.528a5.292,5.292,0,0,1-5.292,5.292H14.619a5.279,5.279,0,0,1-3.74-1.553l.212-.211L21.675,22.092l.212-.212A5.279,5.279,0,0,1,23.439,25.619Z" transform="translate(1.255 14.949)" fill="#f2f2f2"/>
      <path id="Path_32086" data-name="Path 32086" d="M18.819,21a5.279,5.279,0,0,1,3.74,1.553l-.212.211L11.764,33.347l-.212.212A5.279,5.279,0,0,1,10,29.819V26.292A5.292,5.292,0,0,1,15.292,21Z" transform="translate(0.583 14.277)" fill="#f2f2f2"/>
      <path id="Path_32087" data-name="Path 32087" d="M30.458,1V22.166a5.182,5.182,0,0,1-5.291,5.292H4Z" transform="translate(-4 -1)" fill="#e8b134"/>
      <path id="Path_32088" data-name="Path 32088" d="M81.609,55.679l.67.9a3.842,3.842,0,0,0-1.164.776l-3.739,3.757-21.2,21.2-3.757,8.731,8.731-3.757,20.46-20.443V94.483A8.819,8.819,0,0,1,72.79,103.3H12.819A8.819,8.819,0,0,1,4,94.483V27.458H25.166a5.182,5.182,0,0,0,5.292-5.292V1H72.79a8.819,8.819,0,0,1,8.819,8.819H55.151a1.764,1.764,0,0,0-1.764,1.764v5.292a1.764,1.764,0,0,0,1.764,1.764h1.764V39.8A5.292,5.292,0,0,0,62.207,45.1h19.4ZM28.694,87.428V83.9A5.292,5.292,0,0,0,23.4,78.609H19.875A5.292,5.292,0,0,0,14.583,83.9v3.528a5.292,5.292,0,0,0,5.292,5.292H23.4A5.292,5.292,0,0,0,28.694,87.428Zm0-21.166V62.734A5.292,5.292,0,0,0,23.4,57.443H19.875a5.292,5.292,0,0,0-5.292,5.292v3.528a5.292,5.292,0,0,0,5.292,5.292H23.4A5.292,5.292,0,0,0,28.694,66.262Zm0-21.166V41.568A5.292,5.292,0,0,0,23.4,36.277H19.875a5.292,5.292,0,0,0-5.292,5.292V45.1a5.292,5.292,0,0,0,5.292,5.292H23.4A5.292,5.292,0,0,0,28.694,45.1Z" transform="translate(-4 -1)" fill="#d6a22b"/>
      <path id="Path_32089" data-name="Path 32089" d="M35.749,27.458V1H30.458V22.166a5.182,5.182,0,0,1-5.291,5.292H4v5.292H30.458a5.182,5.182,0,0,0,5.292-5.292Z" transform="translate(-4 -1)" fill="#e8b134"/>
      <line id="Line_136" data-name="Line 136" y2="46" transform="translate(76.959 6.151)" fill="none" stroke="#000" stroke-width="4"/>
    </g>
  </g>
  <path id="Subtraction_1" data-name="Subtraction 1" d="M70.536,105.832H10.582A10.59,10.59,0,0,1,0,95.25V28.22a.185.185,0,0,1,.01-.054.2.2,0,0,0,.01-.056,1.706,1.706,0,0,1,.1-.465,1.41,1.41,0,0,1,.057-.167,1.81,1.81,0,0,1,.336-.5v-.007L26.967.512a1.64,1.64,0,0,1,.665-.4,1.694,1.694,0,0,1,.459-.093.324.324,0,0,0,.051-.012A.211.211,0,0,1,28.2,0H70.536a10.5,10.5,0,0,1,6.392,2.162A10.657,10.657,0,0,1,80.7,7.69v5.8l-4.144,4.147h3.829l.316-.316v3.843H56.424v19.4A3.53,3.53,0,0,0,59.95,44.1H80.7V56.081h3.36A5.293,5.293,0,0,1,85.1,64.357l-3.982,3.979V95.25a10.593,10.593,0,0,1-10.582,10.582ZM3.51,29.985V95.25a7.062,7.062,0,0,0,7.056,7.052h59.97a7.06,7.06,0,0,0,7.053-7.052V71.861L60.14,89.3a1.709,1.709,0,0,1-.548.368l-8.731,3.76a1.766,1.766,0,0,1-2.32-2.317l3.759-8.73a1.733,1.733,0,0,1,.372-.549L77.608,56.876a.2.2,0,0,1,.036-.029l.012-.009.012-.009a1.733,1.733,0,0,1-.08-.386v-8.82H59.95A7.061,7.061,0,0,1,52.9,40.57v-19.4a3.532,3.532,0,0,1-3.53-3.526V12.347A3.532,3.532,0,0,1,52.9,8.82H77.339a7.051,7.051,0,0,0-6.8-5.291H29.965v19.4a6.854,6.854,0,0,1-6.85,7.056l-.2,0ZM75.122,64.369h0L55.407,84.082l-1.875,4.354,4.354-1.871L77.608,66.856,75.122,64.37Zm6.239-5.516a1.781,1.781,0,0,0-.675.133,1.989,1.989,0,0,0-.6.419l-2.469,2.469,2.489,2.49,2.506-2.5a1.761,1.761,0,0,0-1.246-3.008ZM26.439,6.022h0L6,26.459h16.91c.083,0,.149.007.209.007a3.326,3.326,0,0,0,3.317-3.533V6.022ZM52.9,12.347v5.295h1.03l5.294-5.295Zm20.131,0-5.291,5.295h3.829l5.294-5.295Zm-8.821,0L58.92,17.642h3.829l5.291-5.295Zm-43.06,82.9H17.621a7.065,7.065,0,0,1-7.056-7.057V84.664a7.064,7.064,0,0,1,7.056-7.056h3.526A7.064,7.064,0,0,1,28.2,84.664v3.529A7.065,7.065,0,0,1,21.148,95.25Zm3.4-11.486h0l-7.827,7.823a3.431,3.431,0,0,0,.9.133h3.526a3.53,3.53,0,0,0,3.526-3.526V84.664a3.573,3.573,0,0,0-.13-.9Zm-6.923-2.626a3.532,3.532,0,0,0-3.53,3.526v3.529a3.442,3.442,0,0,0,.133.9l7.824-7.824a3.46,3.46,0,0,0-.9-.133ZM42.312,91.72H35.26a1.763,1.763,0,1,1,0-3.526h7.052a1.763,1.763,0,1,1,0,3.526Zm0-7.056H35.26a1.763,1.763,0,1,1,0-3.526h7.052a1.763,1.763,0,1,1,0,3.526ZM21.148,74.082H17.621a7.064,7.064,0,0,1-7.056-7.056V63.5a7.065,7.065,0,0,1,7.056-7.057h3.526A7.065,7.065,0,0,1,28.2,63.5v3.526A7.064,7.064,0,0,1,21.148,74.082Zm3.4-11.483h0l-7.827,7.824a3.582,3.582,0,0,0,.9.133h3.526a3.532,3.532,0,0,0,3.526-3.529V63.5a3.58,3.58,0,0,0-.13-.9ZM17.621,59.97a3.534,3.534,0,0,0-3.53,3.53v3.526a3.44,3.44,0,0,0,.133.9L22.048,60.1a3.573,3.573,0,0,0-.9-.133ZM49.368,70.556H35.26a1.765,1.765,0,1,1,0-3.529H49.368a1.765,1.765,0,1,1,0,3.529ZM42.312,63.5H35.26a1.765,1.765,0,0,1,0-3.53h7.052a1.765,1.765,0,0,1,0,3.53ZM21.148,52.918H17.621a7.065,7.065,0,0,1-7.056-7.057V42.332a7.064,7.064,0,0,1,7.056-7.056h3.526A7.064,7.064,0,0,1,28.2,42.332v3.529A7.065,7.065,0,0,1,21.148,52.918Zm3.4-11.486h0l-7.827,7.823a3.431,3.431,0,0,0,.9.133h3.526a3.53,3.53,0,0,0,3.526-3.526V42.332a3.572,3.572,0,0,0-.13-.9Zm-6.923-2.626a3.532,3.532,0,0,0-3.53,3.526v3.529a3.442,3.442,0,0,0,.133.9l7.824-7.824a3.422,3.422,0,0,0-.9-.133ZM49.368,49.388H35.26a1.763,1.763,0,1,1,0-3.526H49.368a1.763,1.763,0,1,1,0,3.526Zm-7.056-7.056H35.26a1.763,1.763,0,1,1,0-3.526h7.052a1.763,1.763,0,1,1,0,3.526Zm35.276-7.056H67.006A3.53,3.53,0,0,1,63.48,31.75V28.224a3.532,3.532,0,0,1,3.526-3.529H77.588A3.527,3.527,0,0,1,80.7,26.56v6.852A3.527,3.527,0,0,1,77.588,35.276ZM67.006,28.224V31.75H77.588V28.224Z"/>
  <path id="Path_32135" data-name="Path 32135" d="M-4.71,0,21.757-1.454C23.413-1.454,26-.215,26,1.441V42c0,1.657.446,7.824-1.211,7.824L3,45a3,3,0,0,1-3-3L-2.78,14.95C-2.78,13.293-6.366,0-4.71,0Z" transform="translate(51.704 7.081)" fill="#d6a22b"/>
</svg>
