<svg xmlns="http://www.w3.org/2000/svg" width="123.966" height="106.432" viewBox="0 0 123.966 106.432">
  <g id="money" transform="translate(-1 -4.395)">
    <g id="Group_41210" data-name="Group 41210" transform="translate(1 4.395)">
      <g id="Group_41145" data-name="Group 41145" transform="translate(0 30.961)">
        <g id="Group_41058" data-name="Group 41058" transform="translate(0 0)">
          <g id="Group_41057" data-name="Group 41057">
            <g id="Group_41055" data-name="Group 41055" transform="translate(0 26.175)">
              <path id="Path_31916" data-name="Path 31916" d="M124.807,45.815v3.812a1.51,1.51,0,0,1-.889,1.239L81.908,75.288a4.809,4.809,0,0,1-4.374,0L1.912,31.617A1.557,1.557,0,0,1,1,30.33V26.518A1.557,1.557,0,0,0,1.912,27.8l75.646,43.67a4.828,4.828,0,0,0,4.351,0l42.009-24.42a1.464,1.464,0,0,0,.889-1.239Z" transform="translate(-1 -26.518)"/>
            </g>
            <g id="Group_41056" data-name="Group 41056" transform="translate(0.004)">
              <path id="Path_31917" data-name="Path 31917" d="M123.89,60.578c1.21.7,1.231,1.828.029,2.526l-42,24.41a4.8,4.8,0,0,1-4.361-.009L1.913,43.834C.7,43.136.7,42.015,1.9,41.316l42-24.41a4.771,4.771,0,0,1,4.347,0Z" transform="translate(-1.001 -16.383)" fill="#ee5550"/>
            </g>
          </g>
        </g>
        <g id="Group_41144" data-name="Group 41144" transform="translate(0.158)">
          <g id="Group_41059" data-name="Group 41059" transform="translate(29.328 28.357)">
            <path id="Path_31918" data-name="Path 31918" d="M18.279,28.647l-.5.293L15.825,29c.343.2.508.432.495.664a.759.759,0,0,1-.458.6,2.246,2.246,0,0,1-1.293.3,3.076,3.076,0,0,1-1.342-.4,1.733,1.733,0,0,1-.81-.931l.773-.138a1.4,1.4,0,0,0,.659.759,1.628,1.628,0,0,0,.7.215,1.082,1.082,0,0,0,.669-.129.366.366,0,0,0,.221-.406,1.106,1.106,0,0,0-.509-.482l-.462-.2.489-.284,1.89-.077L15.475,27.7l.579-.336Z" transform="translate(-12.417 -27.363)" fill="#fff"/>
          </g>
          <g id="Group_41060" data-name="Group 41060" transform="translate(25.881 26.77)">
            <path id="Path_31919" data-name="Path 31919" d="M16.24,27.119a1,1,0,0,1,.539.655c.031.259-.116.483-.472.69a2.012,2.012,0,0,1-.713.224,8.16,8.16,0,0,1-1.235.078l-1.8.009,1.732,1-.609.354-2.6-1.5.549-.319h2.292c.521-.009.894-.018,1.161-.035a1.556,1.556,0,0,0,.609-.164.365.365,0,0,0,.222-.337c-.016-.129-.121-.241-.3-.345a1.981,1.981,0,0,0-1.251-.172l-.211-.466a4.029,4.029,0,0,1,1.116-.008,2.476,2.476,0,0,1,.97.336Z" transform="translate(-11.083 -26.748)" fill="#fff"/>
          </g>
          <g id="Group_41061" data-name="Group 41061" transform="translate(24.418 25.166)">
            <path id="Path_31920" data-name="Path 31920" d="M14.912,26.921l-3.783,2.2-.612-.354,3.2-1.862-.762-.44.579-.337Z" transform="translate(-10.516 -26.127)" fill="#fff"/>
          </g>
          <g id="Group_41063" data-name="Group 41063" transform="translate(37.107 32.771)">
            <path id="Path_31922" data-name="Path 31922" d="M21.114,30.331l-.579.336-1.6-.923L18,30.288a1.853,1.853,0,0,1,.671.233,1.071,1.071,0,0,1,.6.707c.046.285-.116.518-.472.724a2.378,2.378,0,0,1-1.309.293,2.749,2.749,0,0,1-1.356-.354c-.508-.293-.733-.629-.705-1.009l.8-.069.015.129a.921.921,0,0,0,.135.268,1.422,1.422,0,0,0,.419.345,1.575,1.575,0,0,0,.641.2,1.179,1.179,0,0,0,.7-.147c.208-.121.282-.267.251-.422a.924.924,0,0,0-.434-.44,2.551,2.551,0,0,0-.865-.293l.027-.327,1.81-1.052Z" transform="translate(-15.429 -29.072)" fill="#fff"/>
          </g>
          <g id="Group_41064" data-name="Group 41064" transform="translate(41.58 36.26)">
            <path id="Path_31923" data-name="Path 31923" d="M18.043,30.426c.058,0,.113.01.168.019l-.167.119-.372.164-.431-.026-.08.019a.689.689,0,0,1,.183-.148,1.217,1.217,0,0,1,.7-.147Z" transform="translate(-17.161 -30.423)" fill="#cb4844"/>
          </g>
          <g id="Group_41065" data-name="Group 41065" transform="translate(92.12 34.401)">
            <path id="Path_31924" data-name="Path 31924" d="M41.522,31.22c.032.31-.19.6-.65.862a2.819,2.819,0,0,1-1.5.388,3.33,3.33,0,0,1-1.669-.5l-.971-.56L39.667,29.7l1.015.586c.522.3.822.612.839.931Zm-2.2.845a1.84,1.84,0,0,0,1.025-.267c.683-.4.636-.8-.141-1.251l-.508-.293-2,1.165.553.319a2.164,2.164,0,0,0,1.074.327" transform="translate(-36.73 -29.703)" fill="#fff"/>
          </g>
          <g id="Group_41066" data-name="Group 41066" transform="translate(97.362 36.91)">
            <path id="Path_31925" data-name="Path 31925" d="M43.1,32l-.445.259-.9-.517-2.492,1.448L38.76,32.9l2.492-1.448-.9-.517.445-.259Z" transform="translate(-38.76 -30.674)" fill="#fff"/>
          </g>
          <g id="Group_41067" data-name="Group 41067" transform="translate(17.628 30.952)">
            <path id="Path_31926" data-name="Path 31926" d="M13.392,29.687l-.5.293-1.732-1-.861.5,1.553.9-.489.284-1.553-.9-.861.5L10.736,31.3l-.5.293L7.887,30.239l3.22-1.871Z" transform="translate(-7.887 -28.367)" fill="#fff"/>
          </g>
          <g id="Group_41068" data-name="Group 41068" transform="translate(14.253 29.003)">
            <path id="Path_31927" data-name="Path 31927" d="M9.634,29.89l-.321,1.173-.687-.4.307-1.078L8.2,29.165l-1.083.63-.538-.31L9.8,27.613l1.209.7c.493.285.777.535.808.759s-.117.432-.473.638a2.016,2.016,0,0,1-1.711.182Zm-.256-.613a1.781,1.781,0,0,0,.791.285,1.18,1.18,0,0,0,.625-.173c.208-.121.3-.241.251-.353s-.194-.25-.493-.423l-.7-.405-1.157.673Z" transform="translate(-6.58 -27.613)" fill="#fff"/>
          </g>
          <g id="Group_41069" data-name="Group 41069" transform="translate(32.577 39.583)">
            <path id="Path_31928" data-name="Path 31928" d="M19.18,33.028l-.5.293-1.732-1-.861.5,1.553.9L17.146,34l-1.553-.9-.861.5,1.777,1.026-.5.293-2.33-1.345,3.22-1.871Z" transform="translate(-13.675 -31.709)" fill="#fff"/>
          </g>
          <g id="Group_41070" data-name="Group 41070" transform="translate(28.007 36.945)">
            <path id="Path_31929" data-name="Path 31929" d="M18.8,32.809,15.58,34.68l-.553-.319,2.523-1.466-3.376.647-.314-.181,1.121-1.949-2.523,1.466-.552-.319.66-.384.545-.317,2.015-1.171.851.491-1.032,1.742,3-.6Z" transform="translate(-11.906 -30.688)" fill="#fff"/>
          </g>
          <g id="Group_41142" data-name="Group 41142">
            <g id="Group_41071" data-name="Group 41071" transform="translate(43.216 5.604)">
              <path id="Path_31930" data-name="Path 31930" d="M24.313,22.91l-.1-.048-6.421-3.707.653-.379a2.02,2.02,0,0,1,1.845,0L25.878,22Z" transform="translate(-17.794 -18.552)" fill="#fee182"/>
            </g>
            <g id="Group_41072" data-name="Group 41072" transform="translate(40.5 6.404)">
              <path id="Path_31931" data-name="Path 31931" d="M24.582,22.017a6.5,6.5,0,0,0-3.7.616l-4.141-2.391,2.375-1.38Z" transform="translate(-16.743 -18.862)" fill="#fee182"/>
            </g>
            <g id="Group_41073" data-name="Group 41073" transform="translate(40.159 7.784)">
              <path id="Path_31932" data-name="Path 31932" d="M21.093,21.788c-.057.03-.112.06-.167.092s-.117.071-.173.106l-4.142-2.392.341-.2Z" transform="translate(-16.611 -19.397)" fill="#485f69"/>
            </g>
            <g id="Group_41074" data-name="Group 41074" transform="translate(37.443 9.362)">
              <path id="Path_31933" data-name="Path 31933" d="M15.9,20.008l5.465,3.155a1.736,1.736,0,0,0,.614.75l-6.42-3.707Z" transform="translate(-15.559 -20.008)" fill="#485f69"/>
            </g>
            <g id="Group_41075" data-name="Group 41075" transform="translate(43.66 9.798)">
              <path id="Path_31934" data-name="Path 31934" d="M23.857,20.637c1.21.7,1.052,1.932-.342,2.742a5.271,5.271,0,0,1-4.748.216c-1.195-.69-1.037-1.923.372-2.742A5.263,5.263,0,0,1,23.857,20.637Z" transform="translate(-17.967 -20.176)" fill="#fee182"/>
            </g>
            <g id="Group_41076" data-name="Group 41076" transform="translate(43.159 9.508)">
              <path id="Path_31935" data-name="Path 31935" d="M24.338,23.666c-.051.033-.1.065-.158.1s-.121.068-.183.1a6.512,6.512,0,0,1-3.7.614,4.619,4.619,0,0,1-1.3-.358l-.085-.042c-.064-.032-.127-.064-.187-.1s-.107-.065-.157-.1c-.029-.019-.057-.037-.084-.057a1.736,1.736,0,0,1-.614-.75c-.277-.7.083-1.517,1.052-2.144.056-.036.112-.071.173-.106s.11-.062.167-.092a6.5,6.5,0,0,1,3.7-.616,4.586,4.586,0,0,1,1.3.354l.1.048c.059.029.116.059.172.091s.117.071.171.108l.072.049a1.769,1.769,0,0,1,.623.755c.283.707-.078,1.525-1.047,2.146Zm-5.264.106a5.272,5.272,0,0,0,4.748-.216c1.394-.81,1.551-2.044.342-2.742a5.263,5.263,0,0,0-4.717.216c-1.41.819-1.567,2.052-.372,2.742" transform="translate(-17.773 -20.064)" fill="#485f69"/>
            </g>
            <g id="Group_41077" data-name="Group 41077" transform="translate(50.149 10.208)">
              <path id="Path_31936" data-name="Path 31936" d="M20.479,20.335l6.433,3.714-.341.2L21.1,21.091a1.769,1.769,0,0,0-.623-.755Z" transform="translate(-20.479 -20.335)" fill="#485f69"/>
            </g>
            <g id="Group_41078" data-name="Group 41078" transform="translate(36.382 9.56)">
              <path id="Path_31937" data-name="Path 31937" d="M22.63,23.791c.027.019.055.038.084.057l-1.565.909c-4.07-2.671-7.141-3.393-5.592-4.294l.653-.379Z" transform="translate(-15.148 -20.084)" fill="#fee182"/>
            </g>
            <g id="Group_41079" data-name="Group 41079" transform="translate(42.383 13.324)">
              <path id="Path_31938" data-name="Path 31938" d="M19.381,21.74l-1.566.91-.343-.2,1.565-.909q.074.051.157.1c.06.035.123.067.187.1Z" transform="translate(-17.472 -21.542)" fill="#485f69"/>
            </g>
            <g id="Group_41080" data-name="Group 41080" transform="translate(49.725 10.964)">
              <path id="Path_31939" data-name="Path 31939" d="M20.315,22.774c.969-.622,1.33-1.44,1.047-2.146l5.469,3.158-2.375,1.38Z" transform="translate(-20.315 -20.628)" fill="#fee182"/>
            </g>
            <g id="Group_41081" data-name="Group 41081" transform="translate(49.384 13.11)">
              <path id="Path_31940" data-name="Path 31940" d="M20.524,21.459l4.141,2.391-.341.2-4.142-2.392c.062-.032.123-.065.183-.1s.107-.064.158-.1Z" transform="translate(-20.183 -21.459)" fill="#485f69"/>
            </g>
            <g id="Group_41082" data-name="Group 41082" transform="translate(45.681 13.308)">
              <path id="Path_31941" data-name="Path 31941" d="M18.749,22.149a6.512,6.512,0,0,0,3.7-.614l4.142,2.392-.318.185-2.056,1.195Z" transform="translate(-18.749 -21.535)" fill="#fee182"/>
            </g>
            <g id="Group_41083" data-name="Group 41083" transform="translate(44.377 13.564)">
              <path id="Path_31942" data-name="Path 31942" d="M19.548,21.992l5.469,3.158-.341.2-6.432-3.714a4.62,4.62,0,0,0,1.3.358Z" transform="translate(-18.244 -21.634)" fill="#485f69"/>
            </g>
            <g id="Group_41084" data-name="Group 41084" transform="translate(46.504 16.613)">
              <path id="Path_31943" data-name="Path 31943" d="M20.427,23.6a.706.706,0,0,0-.029.069l-.089.242a1.452,1.452,0,0,1-.687-.466l-.224-.129c-.194-.112-.194-.147-.24-.31a.653.653,0,0,0-.091-.19Z" transform="translate(-19.068 -22.815)" fill="#ee5550"/>
            </g>
            <g id="Group_41086" data-name="Group 41086" transform="translate(40.65 35.004)">
              <path id="Path_31945" data-name="Path 31945" d="M20.507,31.825c0,.259-.176.5-.547.716a2.5,2.5,0,0,1-1.278.31,2.725,2.725,0,0,1-1.282-.345c-.612-.353-.749-.758-.439-1.2a2.575,2.575,0,0,1,.859-.724,4.747,4.747,0,0,1,1.084-.491,3.6,3.6,0,0,1,.952-.155,2.835,2.835,0,0,1,1.491.345c.031.018.059.037.089.055a1.332,1.332,0,0,1,.645.8l-.788.1-.151-.311-.27-.259a1.844,1.844,0,0,0-.178-.089,1.724,1.724,0,0,0-.91-.143,3.062,3.062,0,0,0-1.173.388,2.644,2.644,0,0,1,.564.048l.122.021a2.109,2.109,0,0,1,.686.241.887.887,0,0,1,.525.7Zm-1.828.561a1.322,1.322,0,0,0,.684-.155.58.58,0,0,0,.31-.405c0-.155-.121-.293-.33-.413a1.6,1.6,0,0,0-.562-.2c-.055-.009-.111-.015-.168-.019a1.217,1.217,0,0,0-.7.147.689.689,0,0,0-.183.148.389.389,0,0,0-.1.257.574.574,0,0,0,.33.431,1.623,1.623,0,0,0,.715.207" transform="translate(-16.801 -29.936)" fill="#fff"/>
            </g>
            <g id="Group_41087" data-name="Group 41087" transform="translate(27.913 11.173)">
              <path id="Path_31946" data-name="Path 31946" d="M29.135,44.566c.155.119.185.258.106.374a2.882,2.882,0,0,0-1.58-.4,3.6,3.6,0,0,0-.952.155,4.747,4.747,0,0,0-1.084.491,2.575,2.575,0,0,0-.859.724,2.646,2.646,0,0,0-.237-.154,1.926,1.926,0,0,0-.718-.26c-.492-.06-.862.224-1.293.319a13.916,13.916,0,0,1-1.726.172c-.522.044-.969.229-1.058-.112a.124.124,0,0,0-.058-.155c-.933.538-1.577.759-2.264.034l-.342.181c-.529.09-.259-.239-.656-.207l-.4.147a2.525,2.525,0,0,1-1.085.371.209.209,0,0,1-.119-.034.158.158,0,0,0-.193-.009c-.163.1.075.216,0,.31-.267.311-1.087-.026-1.5.268-.5.355-.307.608.053.869l-.545.317a1.9,1.9,0,0,1-.479-.19,1.055,1.055,0,0,1-.275-.22l1.351-2.04a.67.67,0,0,0,.261-.054l.371-.25a5.584,5.584,0,0,1,1.009-.4c.327-.138.4-.336.7-.474l.475-.155c1.007-.045-.263.172,2.7-1l.4-.112a4.575,4.575,0,0,0,.949-.621c.149-.121,0-.207-.091-.327l-.091-.328c-.031-.173-.225-.371-.032-.518.394-.306.161-.109.576-.836l.222-.267-.151-.259.416-.241.3-.087.073-.2c.073-.095.356-.259.505-.173l.329.224.3-.138.283-.043.193.026.341-.25c.178-.1.49-.251.474-.414l-.119-.121c-.286-.036-.409.19-.6-.138l-.2-.215-.046-.285-.121-.293.029-.224-.061-.224-.031-.259c-.165-.259-.051-.707-.5-.969a2.38,2.38,0,0,1-.933-.566l-.061-.241-.031-.241-.1-.112.1-.233.311-.146c.1-.13-.128-.139-.283-.216-.335-.192.187-.344.071-.56-.1-.146-.179-.069-.016-.215.155-.263.592-.723.44-1.155-.356.172-.249.629-.814.681-.152-.808.284-.864.455-1.13.032-.1-.042-.166-.179-.086-.347-.2-.2-.319-.018-.526.466-.544-.081-.939.914-1.517,1.357-.788.874-.859,1.32-.957l.314.164c.312-.164-.181-.414-.182-.6,0-.1-.037.361.054-.983l.282-.2-.343-.181.208-.121-.388-.12c.134-.147.49-.337.549-.492.058-.19-.374-.25-.36-.448-.067-.794-1.134-1.289-1.885-1.569a8.694,8.694,0,0,0-3.246-.138,4.357,4.357,0,0,0-.5-.082c.264-.054.426-.166.718-.2.313-.043.626.017.848-.164.157-.108.217-.288.047-.386l-.333-.14c-.12-.1-.03-.086-.031-.173-.046-.181-.42-.413-.182-.621.7-.623,1.077.178,1.608.052l.266-.259a2.608,2.608,0,0,1-.94-.422c-.209-.155-.27-.5.236-.431l.6.19.209.121-.059.138c.089.258.31-.084.341-.319,0-.207-.479-.413-.138-.577a.7.7,0,0,0,.474.222l5.01,2.893a.728.728,0,0,0,.115.083.683.683,0,0,0,.127.056l.208.121,3.577,2.065a.653.653,0,0,1,.091.19c.083.3.137.223.464.44a1.452,1.452,0,0,0,.687.466L31.791,27c.34.091,1.33.767,2.322.19l3.05-1.772c.141.028.288.051.439.073,4.234.642,11.9,4.874,6.94,3.285a6.685,6.685,0,0,0-1.192-.138c-1.463-.221-.434-.348-2.144-.017a5.251,5.251,0,0,0-.981.137c-.432.174-.353.395-1.326-.077-.31-.179-.653-.361-.941-.543-.2-.145-.357-.317-.612-.267l-.207.138c-.493.05-.641-.284-1.085.285-.212.259-.969.438-.4.767.533.281-.306.511.026.7a.935.935,0,0,0,1.047-.306c.177-.336-.42-.886.411-1.138.309-.085.888.032.984.276a1.506,1.506,0,0,0-.742.31l-.1.25.342-.009.356-.311.462.078.358.224.09.172.163-.129.359.224.017.25.3.207c.14.668-.062.669.243.845.151.086.221.137.209.224l0,.276.105.268c-.132.146-.758.164-.4.388l.388.173c.1.129-.014.129-.088.259l.062.293c.12.121.238.121.031.242-.274-.019-.3-.154-.522-.285l-.312.112c-.209-.2,0-.491-.29-.656-.354.13-.159.363-.187.569l-.267.241-.134.026-.267.1-.391-.569c-.193.009.36.5.034.621a.952.952,0,0,1-.434-.405v-.224l-.12-.12c-.2-.258.278-.371-.674-.785-.067-.039-.254-.067-.341-.117-.047-.027-.065-.061-.018-.107l.4-.026.731.405.252-.2.536.034.236-.276-.046-.319-.12-.19c-.18-.137-.328-.19-.345-.371-.031-.155.014-.2-.181-.31-.845-.488-.984.37-1.263.44l-.283-.009-.268-.1-.283.2c-.043.163.211.345.167.509-.225-.13-.2-.24-.479-.327l-.283-.1-.12-.172c-.107-.061-.388-.018-.424-.039l.259-.211c-.224-.078-.461.06-.669.026-.313-.043-.434-.232-.82-.2l-.461.147-.58.008a.8.8,0,0,0-.491.026c-.31.132-.092.119.091.293.15.155-.073.2-.192.319-.09.142.59.19.628.517.046.164-.013.3.122.466l.359.259c.388.335.039.293-.294.621-.119.138-.3.293-.191.44l.343.146c.327-.069.415-.4.712-.517l.387-.017c.359.207.548.231.757-.388.073-.25.37-.284.653-.414l.712-.4.284.233.613.371.016.25.06.259.09.207-.459.3.657.379c.3.052.61-.267.848-.181l-.074.2-.118.19-.16.629-.1.233.061.259L37.507,35l.09.224c.121.138.27.241-.012.336-.423.033-.317.142-.775-.052-.392-.14-.764-.069-1.092-.259-.083-.048-.16-.1-.249-.155a2.962,2.962,0,0,0-1.461-.327,2.557,2.557,0,0,1,.669.12l.271.371c-.178.138-.312-.009-.477-.051-.252.095,0,.121-.028.207l-.164.078.076.25.253.06.224.112.387.052a.75.75,0,0,1-.923,0l-.373-.146-.477-.086.356-.207-.551-.077-.358-.138c-.466-.145-.425.091-.684.259l-.179-.1-.252.112c-.259.025-.394-.193-.613-.319l-.4.146-.135-.129-.193.095c-.1.057-.167.07-.194.054s-.011-.072.075-.14l.058-.138-.177.051-.341.285-.4.216-.565.017c-.343-.026-.954-.207-1.251-.069l-.34.3-.163.25-.208.155c-.257.085-.3.086-.324.071-.08-.046,0-.243,0-.295l.074-.181.237-.172.059-.173c-.017-.153-.14-.18-.284-.25l-.165-.181-.239-.1-.149-.086-.328-.086h-.178l-.194-.147-.105-.129-.523-.3-.223-.009-.193.026c-.285.029-.291-.243-.847.2l-.372.06-.327.138-.267.207v.207c.09.138-.133.129-.237.207l.21.241-.119.052.134.06.179.034.134.1.194.043.06.069.3.069.149-.069.178-.017.162-.095.478.155.209.138-.074.112-.282.009-.237.19-.313-.009c-.583.195-.691.029.317.733l.016.077-.237.19-.193.112-.445.19.061.259.121.241.253.06.149.035.105.112.045.112.09.172a.162.162,0,0,1,.181-.01l.638.036a.641.641,0,0,1,.384.075,2.57,2.57,0,0,1,.273.218,1.26,1.26,0,0,0,.328.121.922.922,0,0,1,.318.094.454.454,0,0,1,.1.078l.135.233a3.337,3.337,0,0,1,.881.612l.121.38c.032.524-.293.266.168.646.13.091.55.721.451.88l-.134.112v.121l-.267.172c-.312.078-.507-.034-.773.138.315.218.721-.174.879.164l-.267.138c.51.088.635-.076.7.578a.242.242,0,0,0,.129.231c.126.073.327.093.528.2s.224.168.225.285c-.044.2-.029.19.151.345Zm-6.009.915a2.379,2.379,0,0,0,1.309-.293c.356-.207.518-.44.472-.724a1.071,1.071,0,0,0-.6-.707,1.863,1.863,0,0,0-.671-.233l.935-.543,1.6.923.579-.336-2.181-1.259-1.81,1.052-.027.327a2.545,2.545,0,0,1,.865.293.925.925,0,0,1,.434.44c.031.155-.043.3-.251.422a1.18,1.18,0,0,1-.7.147,1.579,1.579,0,0,1-.641-.2,1.421,1.421,0,0,1-.419-.345.918.918,0,0,1-.135-.268l-.016-.129-.8.068c-.028.38.2.716.706,1.009a2.745,2.745,0,0,0,1.356.354" transform="translate(-11.869 -20.709)" fill="#d6a22b"/>
            </g>
            <g id="Group_41088" data-name="Group 41088" transform="translate(42.726 13.522)">
              <path id="Path_31947" data-name="Path 31947" d="M19.17,21.618l.085.042,6.432,3.714c-.26.09-1.312,1.063-2.5.379l-1.808-1.044-3.449-1.991-.128-.074-.2-.116Z" transform="translate(-17.605 -21.618)" fill="#fee182"/>
            </g>
            <g id="Group_41091" data-name="Group 41091" transform="translate(11.369 26.917)">
              <path id="Path_31950" data-name="Path 31950" d="M10.7,28.392l-1.81,1.052a2.744,2.744,0,0,1-1.456.4A2.7,2.7,0,0,1,6.063,29.5c-.4-.233-.6-.5-.6-.793s.22-.578.68-.845l1.81-1.052.553.319L6.725,28.159q-.444.258-.488.543c-.013.181.092.345.346.491a1.635,1.635,0,0,0,.864.207,2.188,2.188,0,0,0,.921-.293l1.781-1.035Z" transform="translate(-5.463 -26.805)" fill="#fff"/>
            </g>
            <g id="Group_41092" data-name="Group 41092" transform="translate(16.363 29.598)">
              <path id="Path_31951" data-name="Path 31951" d="M9.75,28.671c.045.112-.043.232-.251.353a1.18,1.18,0,0,1-.625.173,1.781,1.781,0,0,1-.791-.285l-.687-.4,1.157-.673.7.405C9.555,28.421,9.719,28.568,9.75,28.671Z" transform="translate(-7.397 -27.843)"/>
            </g>
            <g id="Group_41093" data-name="Group 41093" transform="translate(83.798 29.589)">
              <path id="Path_31952" data-name="Path 31952" d="M37.27,28.237c.463.267.689.586.646.957l-.655.017-.121-.4a1.27,1.27,0,0,0-.359-.293,2.089,2.089,0,0,0-1.043-.276A2.062,2.062,0,0,0,34.7,28.5c-.3.172-.459.371-.443.6a.654.654,0,0,0,.405.6,1.8,1.8,0,0,0,.536.207l.67.06-.012.371a2.99,2.99,0,0,1-1.654-.354c-.448-.259-.688-.552-.69-.9,0-.328.205-.621.651-.88a2.932,2.932,0,0,1,1.53-.37,3.133,3.133,0,0,1,1.58.4Z" transform="translate(-33.508 -27.84)" fill="#fff"/>
            </g>
            <g id="Group_41094" data-name="Group 41094" transform="translate(89.342 32.797)">
              <path id="Path_31953" data-name="Path 31953" d="M40.683,30.289l-.46.267-1.583-.914-.786.457,1.419.819-.431.25-1.419-.819-.786.457,1.628.94-.474.276-2.136-1.233,2.937-1.707Z" transform="translate(-35.655 -29.082)" fill="#fff"/>
            </g>
            <g id="Group_41095" data-name="Group 41095" transform="translate(42.46 35.485)">
              <path id="Path_31954" data-name="Path 31954" d="M18.675,30.134a1.724,1.724,0,0,1,.91.143,1.873,1.873,0,0,0-1.013.124.738.738,0,0,0-.507.168,2.644,2.644,0,0,0-.564-.048A3.063,3.063,0,0,1,18.675,30.134Z" transform="translate(-17.502 -30.122)" fill="#cb4844"/>
            </g>
            <g id="Group_41096" data-name="Group 41096" transform="translate(20.675 32.711)">
              <path id="Path_31955" data-name="Path 31955" d="M15.273,30.773l-3.22,1.871-.6-.345.508-2.423L9.619,31.239l-.552-.319,3.22-1.871.552.319-.522,2.483,2.4-1.4Z" transform="translate(-9.067 -29.048)" fill="#fff"/>
            </g>
            <g id="Group_41099" data-name="Group 41099" transform="translate(95.42 36.306)">
              <path id="Path_31958" data-name="Path 31958" d="M41.453,30.734l-2.937,1.707-.508-.293,2.937-1.707Z" transform="translate(-38.008 -30.441)" fill="#fff"/>
            </g>
            <g id="Group_41100" data-name="Group 41100" transform="translate(43.489 36.41)">
              <path id="Path_31959" data-name="Path 31959" d="M24,32.024l-.579.336-4.817.931-.7-.405,4.773-.957-1.344-.776-.519.3-.582-.336,1.1-.638Z" transform="translate(-17.9 -30.481)" fill="#fff"/>
            </g>
            <g id="Group_41101" data-name="Group 41101" transform="translate(46.943 38.631)">
              <path id="Path_31960" data-name="Path 31960" d="M22.922,33.241c.136.336,0,.638-.412.879a2.152,2.152,0,0,1-1.2.25,3.026,3.026,0,0,1-1.372-.4,1.2,1.2,0,0,1-.689-.793c-.046-.267.1-.509.427-.7a2.291,2.291,0,0,1,1.517-.241.605.605,0,0,1,.354-.69,1.8,1.8,0,0,1,1.086-.2,2.7,2.7,0,0,1,1.207.354,1.128,1.128,0,0,1,.615.7c.06.242-.072.457-.354.621a2.092,2.092,0,0,1-1.175.216Zm-1.738.629a1.1,1.1,0,0,0,.7-.13c.192-.112.281-.25.221-.405a.782.782,0,0,0-.374-.405,1.9,1.9,0,0,0-.716-.224,1.177,1.177,0,0,0-.7.129c-.193.113-.267.259-.207.414a.84.84,0,0,0,.39.4,1.938,1.938,0,0,0,.685.224m1.507-2.052a1.051,1.051,0,0,0-.61.112.317.317,0,0,0-.192.354.576.576,0,0,0,.315.37,1.512,1.512,0,0,0,.64.181,1.055,1.055,0,0,0,.61-.112.316.316,0,0,0,.192-.354A.541.541,0,0,0,23.333,32a1.3,1.3,0,0,0-.641-.181" transform="translate(-19.238 -31.341)" fill="#fff"/>
            </g>
            <g id="Group_41104" data-name="Group 41104" transform="translate(101.107 39.583)">
              <path id="Path_31963" data-name="Path 31963" d="M43.971,32.106c.463.267.674.577.646.957l-.655.017-.121-.4a1.311,1.311,0,0,0-.374-.3,2.074,2.074,0,0,0-1.029-.267,1.942,1.942,0,0,0-1.041.259c-.3.172-.459.371-.443.6a.654.654,0,0,0,.405.595,1.875,1.875,0,0,0,.536.207l.67.06-.012.371a2.99,2.99,0,0,1-1.654-.354c-.448-.259-.688-.552-.69-.9,0-.328.205-.621.65-.88a2.934,2.934,0,0,1,1.531-.37,3.083,3.083,0,0,1,1.58.4Z" transform="translate(-40.21 -31.709)" fill="#fff"/>
            </g>
            <g id="Group_41106" data-name="Group 41106" transform="translate(103.171 41.532)">
              <path id="Path_31965" data-name="Path 31965" d="M45.784,32.774l-1.638,2.457-.537-.31.369-.56L42.5,33.507l-.966.216-.523-.3,4.237-.957Zm-2.617.587,1.075.621.68-1.018Z" transform="translate(-41.009 -32.464)" fill="#fff"/>
            </g>
            <g id="Group_41107" data-name="Group 41107" transform="translate(57.792 43.898)">
              <path id="Path_31966" data-name="Path 31966" d="M23.438,34.232a2.647,2.647,0,0,0,.673-.382,1.357,1.357,0,0,0,.414-.47.444.444,0,0,1,.2.34c.016.164-.1.3-.3.414a1.117,1.117,0,0,1-.669.146A1.782,1.782,0,0,1,23.438,34.232Z" transform="translate(-23.438 -33.38)"/>
            </g>
            <g id="Group_41108" data-name="Group 41108" transform="translate(54.627 43.151)">
              <path id="Path_31967" data-name="Path 31967" d="M27.347,34.628a2.63,2.63,0,0,1-.859.724,5.5,5.5,0,0,1-1.084.491,3.472,3.472,0,0,1-.966.164,2.83,2.83,0,0,1-1.49-.345,1.681,1.681,0,0,1-.576-.516,1.2,1.2,0,0,1-.159-.355l.8-.086.066.148.069.154.284.268a1.789,1.789,0,0,0,1.088.233,2.811,2.811,0,0,0,1.159-.4,2.836,2.836,0,0,1-.67-.06,2.108,2.108,0,0,1-.7-.25,1.458,1.458,0,0,1-.286-.21.621.621,0,0,1-.224-.48c0-.259.176-.5.547-.716a2.287,2.287,0,0,1,1.263-.3c.952,0,2.309.663,1.735,1.535Zm-1.651.112a1.117,1.117,0,0,0,.669-.146c.193-.112.311-.25.3-.414a.444.444,0,0,0-.2-.34.9.9,0,0,0-.12-.082,1.409,1.409,0,0,0-.716-.19,1.169,1.169,0,0,0-.684.155.534.534,0,0,0-.31.388c0,.155.106.284.33.414a1.6,1.6,0,0,0,.412.167,1.78,1.78,0,0,0,.318.049" transform="translate(-22.213 -33.091)" fill="#fff"/>
            </g>
            <g id="Group_41111" data-name="Group 41111" transform="translate(106.71 42.825)">
              <path id="Path_31970" data-name="Path 31970" d="M45.18,35.051l-.306,1.061-.627-.362.292-.983-.657-.379-.994.578-.508-.293,2.937-1.707,1.105.638c.448.259.7.491.749.69s-.117.4-.443.586A1.87,1.87,0,0,1,45.18,35.051Zm-.241-.569a1.67,1.67,0,0,0,.715.259,1,1,0,0,0,.566-.156c.192-.112.281-.215.251-.319a1.185,1.185,0,0,0-.463-.388l-.627-.362-1.053.612Z" transform="translate(-42.38 -32.965)" fill="#fff"/>
            </g>
            <g id="Group_41112" data-name="Group 41112" transform="translate(59.258 46.187)">
              <path id="Path_31971" data-name="Path 31971" d="M26.812,34.49a3.336,3.336,0,0,1-1.366.638c-.418.115-.87.221-1.31.32a.384.384,0,0,1-.09-.458,1.874,1.874,0,0,1,.771-.724,2.668,2.668,0,0,0,.67.147c.5-.016.814-.225,1.227.014.032.019.065.04.1.064Z" transform="translate(-24.006 -34.267)"/>
            </g>
            <g id="Group_41113" data-name="Group 41113" transform="translate(58.092 46.724)">
              <path id="Path_31972" data-name="Path 31972" d="M23.9,34.628a.649.649,0,0,0,.2.656.537.537,0,0,1-.377-.053l-.026-.016c-.239-.155-.122-.466.027-.6a.788.788,0,0,1,.24-.136.934.934,0,0,0-.061.154Z" transform="translate(-23.555 -34.474)"/>
            </g>
            <g id="Group_41114" data-name="Group 41114" transform="translate(58.409 45.207)">
              <path id="Path_31973" data-name="Path 31973" d="M28.881,35.247A2.082,2.082,0,0,1,27.83,36.29a4.427,4.427,0,0,1-1.8.613,2.85,2.85,0,0,1-1.7-.363,1.882,1.882,0,0,1-.433-.327.649.649,0,0,1-.2-.656.933.933,0,0,1,.061-.154,2.343,2.343,0,0,1,.975-.9,4.466,4.466,0,0,1,1.812-.6,2.774,2.774,0,0,1,1.7.362Q29.012,34.7,28.881,35.247Zm-2.926,1.147a3.683,3.683,0,0,0,1.248-.466A1.856,1.856,0,0,0,28,35.2c.118-.224.013-.44-.3-.621a1.615,1.615,0,0,0-1.088-.181,3.652,3.652,0,0,0-1.262.457l-.014.009a1.874,1.874,0,0,0-.771.724.384.384,0,0,0,.09.458,1.017,1.017,0,0,0,.226.171,1.573,1.573,0,0,0,1.073.173" transform="translate(-23.677 -33.887)" fill="#fff"/>
            </g>
            <g id="Group_41115" data-name="Group 41115" transform="translate(61.903 46.8)">
              <path id="Path_31974" data-name="Path 31974" d="M29.426,35.305l-3.783,2.2-.612-.354,3.2-1.862-.777-.448.579-.336Z" transform="translate(-25.03 -34.504)" fill="#fff"/>
            </g>
            <g id="Group_41116" data-name="Group 41116" transform="translate(49.926 31.193)">
              <path id="Path_31975" data-name="Path 31975" d="M74.308,47.913c.166.3-.162.233-.5.121l-.282.147-.15-.224-.209-.155-.061-.189-.209-.138-.209-.155.028-.207c-.194-.112-.505.1-.639.164-.214-.122-.338-.3-.256-.44-.178.086-.237.172-.236.293l.059.155-.118.086c-.06.1.015.2-.267.155-.856-.542-.4-.2-1.506-.474a1.129,1.129,0,0,0-.61.009.388.388,0,0,1-.214-.013c-.08-.046.01-.17-.086-.3-.462-.026-.806-.345-1.252-.38a.577.577,0,0,0-.476.173l-.415.224c-.314-.163-.476.138-.7.181l-.64.008c-.268-.034-.343-.2-.582-.215-.313-.008-.58.164-.893.173a2.46,2.46,0,0,0,.713-.362c.275-.248-.028-.714,1.113-.664a4.332,4.332,0,0,1,.818.043l.507.172.447-.035a2.763,2.763,0,0,0,.8-.034c.135-.071.15-.116.1-.142-.111-.064-.875.05-1.069-.062l.174-.218c-.505-.126-.329-.115-.836-.379-.4-.112-.758.25-1.131.155-.251-.127.04-.239-.091-.345L64.9,44.9c-.318-.18-.346-.568-.7-.664-.224-.06-.521-.026-.745-.1s-.314-.181-.522-.233a2.754,2.754,0,0,0-1.057.1l-.506-.035c-.149-.017-.329-.121-.477-.017-.133.112.151.224.151.328s-.156.135-.013.217c.163.077.405.035.561.125l.007.39-.4.06c-.9.029.017.02-1.888.44-.833.16-.825.349-1.667-.069a3.159,3.159,0,0,0-1.1-.155l-.685.087-.313-.06c-.461.095-.206.483-.428.63a.528.528,0,0,1-.49.028c-.307-.177.11-.307.37-.408.4-.164-.12-.173-.047-.388.094-.253.546-.157.043-.319l-.328-.155.193-.233c-.209-.069-.372.043-.6.017-.194-.026-.523-.284-.656-.121l.121.241.21.172c.294.355-.987-.405-.653.328.216.457-.973.835-1.588.888-1.652.129-1.745-.078-3.412-.578-.268-.087-.582-.285-.894-.155-.4.164-.176.465-.2.69-.058.26-.847.853-1.306.588l-.716-.088.252-.285-.254-.2c-.082-.129.054-.5-.12-.6-.264-.152-.811.3-1,.593-.176.276.344.354.272.569-.059.155-.416.19-.444.379-.048.24-.181.293-.289.23a.383.383,0,0,1-.158-.334,2.551,2.551,0,0,1,.176-.638c.257-.976,1.546-.971,1.48-1.569a.593.593,0,0,1-.519.062c-.227-.252.161-.2.324-.261.253-.095.132-.3.191-.457s.34-.474.146-.621l-.835-.241-.253-.026-.418-.069a1.406,1.406,0,0,0-.685,0,1.61,1.61,0,0,1-.833,0l-.209-.19c-.4.129-.7.492-1.143.561a2.619,2.619,0,0,0-.61.078l-.416.121c-.254-.1.019-.287.043-.388l-.047-.3.237-.207c.871-1.087.852-.764,1.586-1.285-.307-.3-.456.1-.715-.052.1-.259.378-.784.277-1.043-.119-.342-1.642-.716-1.7-1.086-.051-.258.2-.284-.24-.4-.239-.063-.413-.1-.448-.345s.28-.577-.212-.707c-.466.257-.874.842-.435,1.1a3.447,3.447,0,0,0,1.005.145c.054.031.013.1-.056.26-.1.2.21.293.181.466-.038.282-.97.248-1.517.241l-.461.026-.358-.155c-.312-.086-.511.147-.8-.021l-.362-.272-.461.026-.314-.181-.507-.034c-.209-.259.176-.5.294-.776l.191-.371.043-.336.3-.362.1-.354.192-.354.029-.19-.12-.121c-.087-.178.058-.384.153-.572a1.764,1.764,0,0,1-.6.451c-.029.242-.3.483-.339.733-.092.719-.645.348-.472.845l0,.293-.238.207-.1.233c-.043.146.136.267.106.405s-.311.129-.4.267c1.12.647,1.761.492,1.835.75a6.645,6.645,0,0,1-2.6.526c-2.1.035-2.2-.44-3.079.166a2.509,2.509,0,0,0-1.3-.355,2.287,2.287,0,0,0-1.263.3c-.371.216-.548.457-.547.716a.621.621,0,0,0,.224.48c-.535-.092-.565-.057-.8.132-.047.04-.093.085-.142.131l-.066-.148-.8.086a1.2,1.2,0,0,0,.159.355.927.927,0,0,1-.142-.036c-1.364-.473-1.634,1.154-4.364-.423-.775-.448-.061-.63.13-.888l.132-.284c.251-.457,1.022-.819,1.169-1.285a.768.768,0,0,1,.444-.569,1.2,1.2,0,0,1,.863-.138c.121-.048-.167.121,1.156-.776.356-.259.279-.681.381-1,.141-.416,1.449-.423.892-.745a2.129,2.129,0,0,1-.346-.212c-.251-.212.046-.575-.244-.742a8.49,8.49,0,0,0-.967-.2l-.269-.207c-2.7-.7-1.205-1.173-1.486-2.164.042-.284.4-.457.71-.638.178-.1-.046-.25-.017-.354,2.152-1.285,1.1.207,2.453-.457.4-.009.816-.3,1.264-.2,1.385.287.767-.118,1.636-.138l.626.034c.758-.181-.3-.69-.005-.827l.269.017a6.2,6.2,0,0,1,.905-.543c.893.564,1.114.974,1.433.845l.222-.268c.192-.164.327-.19.3-.414-.015-.164-.121-.345.205-.465.369.213.069.357.806.327.357,0,.6.31,1.1.207.416-.086.641.095,1.027.129L36,30.056l.4.095c.432.009.579-.336.965-.405s.7.147.922-.138c-.369-.224-.545-.206-.808-.357-.739-.427.854-.692,1.114-.79.99.583.98.183,1.431.241l.373.06c.489-.081.025-.307,1.055-.267a6.732,6.732,0,0,1,2.549.6c.289.034.256-.06.515.089a.876.876,0,0,1,.171.135,1.352,1.352,0,0,0,.155.109.7.7,0,0,0,.144.064c.174.07.431.078.537.224l.017.319c.032.241.434.337.569.552.472.583-.053.922-.666.733-.31-.094-.4-.289-.681-.449L44.5,31.2c0,.7,1.534.28,1.933.511.259.149.231.368.915.395.955.037.483-.017,1.238.491a1.875,1.875,0,0,0,1.163.241c.342-.008.282-.077.491.043.15.086.2.169.309.232a.711.711,0,0,0,.229.079l.416-.155c1.006.581.291.829.914,1.026.676-.294-.4-.37,1.917-.56.414-.016.444.153.181.345a3.533,3.533,0,0,1-.8.31c-.312.13-.281.337-.474.5a1.366,1.366,0,0,1-1.413.146.989.989,0,0,0,.342.325,1.144,1.144,0,0,0,.36.131c.462.077,1.31-.035,1.382-.336.243-1.013.781-.653,1.186-.932.258.145-.363.517-.2.707.193-.043.356-.293.594-.241.023.205.255.143.427.242.174.136-.054.255.163.38.53-.1-.553-1.168,1.557.05.144.083.208.212.352.3.483-.105-.025-.347.317-.494.343.147.76.164,1.118.3a1.443,1.443,0,0,1,.314.181,1.905,1.905,0,0,0,.448.207c.283.078.417,0,.656.138a2.266,2.266,0,0,0,.21.141,1.307,1.307,0,0,0,.193.092c.4.164.878.06,1.251.259.588.335-.156.408.764.8l.538.258c.134.13-.1.233-.013.337-.682.5-3.39-.739-3.187-.276a5.548,5.548,0,0,1,1.938.587c.063.136-.162.189-.018.272.259.149.719.141,1.049.392-.148.138-.476.052-.237.241.149.1.343.2.478.31l.373.216c.239.034.1-.077.253-.095.253-.033.474.175.671.336.33.259.464.474.064.69-.158.092-.385.191-.2.3.275.141.407-.075.616-.006l.135.181.7.4.642.233.3-.051a5.339,5.339,0,0,1,1.673,1.121l-.148.121.194.129-.074.13c.064.2.547.251.879.442a4.467,4.467,0,0,1,.616.489l-.179.1c-.358.069-.107.268.18.433.176.1.366.191.435.23a3.651,3.651,0,0,0,.508.293c.207.09.516.117.314.268-.352-.057-.194.177.046.215.3.053.189-.434.916-.014a3.815,3.815,0,0,1,.665.514,4.194,4.194,0,0,1,.691,1.155c.036.088.008.374.11.433Z" transform="translate(-20.393 -28.461)" fill="#d6a22b"/>
            </g>
            <g id="Group_41117" data-name="Group 41117" transform="translate(63.351 48.412)">
              <path id="Path_31976" data-name="Path 31976" d="M30.748,35.49a.972.972,0,0,1,.539.655c.031.259-.116.483-.472.69a1.938,1.938,0,0,1-.7.233,9.688,9.688,0,0,1-1.235.078l-1.8.009,1.717.991-.609.354-2.6-1.5.549-.319,2.307.009c.521-.009.893-.018,1.146-.043a1.359,1.359,0,0,0,.609-.164.409.409,0,0,0,.237-.328c-.015-.129-.121-.241-.3-.345a1.942,1.942,0,0,0-1.252-.173l-.211-.466a4.042,4.042,0,0,1,1.116-.009,2.4,2.4,0,0,1,.955.327Z" transform="translate(-25.591 -35.128)" fill="#fff"/>
            </g>
            <g id="Group_41118" data-name="Group 41118" transform="translate(68.292 50.852)">
              <path id="Path_31977" data-name="Path 31977" d="M33.366,37.357l-.5.293-1.934.069c.343.2.493.423.48.655a.75.75,0,0,1-.443.6,2.3,2.3,0,0,1-1.308.293,3,3,0,0,1-1.327-.388,1.745,1.745,0,0,1-.824-.94l.788-.129a1.358,1.358,0,0,0,.644.75,1.769,1.769,0,0,0,.716.224,1.124,1.124,0,0,0,.654-.138c.193-.112.267-.241.222-.405a1.049,1.049,0,0,0-.495-.474l-.477-.207.489-.285,1.89-.077-1.374-.793.579-.336Z" transform="translate(-27.504 -36.073)" fill="#fff"/>
            </g>
            <g id="Group_41119" data-name="Group 41119" transform="translate(77.284 55.407)">
              <path id="Path_31978" data-name="Path 31978" d="M31.811,38.458c-.048-.033-.1-.066-.154-.1a1.987,1.987,0,0,0-.671-.233l.5-.291a1.048,1.048,0,0,0,.333.291c.039.02.076.04.111.059.176.1.264.2-.035.26Z" transform="translate(-30.986 -37.836)" fill="#cb4844"/>
            </g>
            <g id="Group_41120" data-name="Group 41120" transform="translate(72.022 53.344)">
              <path id="Path_31979" data-name="Path 31979" d="M33.873,37.443l-3.629.518.911.526.7-.406.612.354-.138.081-.559.325.448.259-.578.336-.448-.259-.95.552-.612-.353.95-.552-.444-.256-1.183-.683.564-.327,3.659-.517Z" transform="translate(-28.948 -37.038)" fill="#fff"/>
            </g>
            <g id="Group_41121" data-name="Group 41121" transform="translate(74.723 54.482)">
              <path id="Path_31980" data-name="Path 31980" d="M35.667,38.737l-.579.337-1.6-.923-.434.252-.5.291a2,2,0,0,1,.671.233c.055.032.106.065.154.1a.994.994,0,0,1,.46.617.57.57,0,0,1-.057.324.993.993,0,0,1-.415.4,2.379,2.379,0,0,1-1.309.293,2.747,2.747,0,0,1-1.356-.354c-.523-.3-.748-.638-.706-1.009l.8-.069.015.129a.928.928,0,0,0,.135.268,1.33,1.33,0,0,0,.4.336,1.578,1.578,0,0,0,.641.2,1.18,1.18,0,0,0,.7-.147c.208-.121.3-.259.251-.422a.893.893,0,0,0-.434-.44,2.624,2.624,0,0,0-.865-.293l.028-.327.354-.206,1.456-.846Z" transform="translate(-29.994 -37.478)" fill="#fff"/>
            </g>
            <g id="Group_41122" data-name="Group 41122" transform="translate(79.1 58.43)">
              <path id="Path_31981" data-name="Path 31981" d="M31.844,39.415a.421.421,0,0,1-.154-.3.319.319,0,0,1,.007-.1,1.131,1.131,0,0,1,.143.346.335.335,0,0,1,0,.062Z" transform="translate(-31.689 -39.007)" fill="#cb4844"/>
            </g>
            <g id="Group_41124" data-name="Group 41124" transform="translate(78.265 56.715)">
              <path id="Path_31983" data-name="Path 31983" d="M35.061,40.231c0,.259-.176.5-.546.716a2.384,2.384,0,0,1-1.278.31,2.642,2.642,0,0,1-1.178-.289c-.03-.015-.059-.031-.089-.048-.612-.354-.749-.759-.454-1.207a2.574,2.574,0,0,1,.86-.724c.053-.031.106-.06.158-.089a5.325,5.325,0,0,1,.926-.4,4.088,4.088,0,0,1,.952-.155,2.835,2.835,0,0,1,1.491.345,1.458,1.458,0,0,1,.749.862l-.8.086-.135-.3-.285-.267a1.786,1.786,0,0,0-1.088-.233,2.809,2.809,0,0,0-1.158.4,3.288,3.288,0,0,1,.67.06,2.127,2.127,0,0,1,.7.25A.836.836,0,0,1,35.061,40.231Zm-1.828.561a1.214,1.214,0,0,0,.684-.155.529.529,0,0,0,.31-.405c.014-.147-.106-.284-.331-.414a1.631,1.631,0,0,0-.73-.215,1.27,1.27,0,0,0-.684.155.518.518,0,0,0-.273.3.319.319,0,0,0-.007.1.421.421,0,0,0,.154.3.971.971,0,0,0,.176.128,1.5,1.5,0,0,0,.7.2" transform="translate(-31.366 -38.343)" fill="#fff"/>
            </g>
            <g id="Group_41125" data-name="Group 41125" transform="translate(69.823 54.396)">
              <path id="Path_31984" data-name="Path 31984" d="M37.231,42.39a3.842,3.842,0,0,1-.682.418,2.575,2.575,0,0,1-1.115.25,2.525,2.525,0,0,0-.759.147,1.249,1.249,0,0,1-.863.069l-.329-.155-.4-.009.088-.173-.327.121A.544.544,0,0,1,32.478,43a.789.789,0,0,1-.216-.214c-.166-.2-.241-.293-.108-.491.089-.173.445-.293.31-.491l-.105-.112.267-.224a1.484,1.484,0,0,1-.554-.033A.152.152,0,0,1,32,41.351c-.046-.181.207-.276.042-.474l-.463-.216a1.643,1.643,0,0,1-.192-.1c-.12-.069-.226-.145-.346-.214a2.136,2.136,0,0,0-.731-.285,2.944,2.944,0,0,1-.9-.2.646.646,0,0,1-.059-.037l-.418-.259-.536-.034a.781.781,0,0,1-.177-.071c-.207-.12-.148-.291.071-.4.239.121.476-.155.624-.241a.932.932,0,0,0,.369-.474.936.936,0,0,1,.5-.5l.535-.224-.432-.026.49-.147.478.276a1.524,1.524,0,0,0,.615.2l.444.257-.95.552.612.354.95-.552.448.259.578-.336-.448-.259.559-.325.482.222a1.077,1.077,0,0,0,.3.3.519.519,0,0,0,.418.043.964.964,0,0,0,.161-.059l-.354.206-.028.327a2.624,2.624,0,0,1,.865.293.891.891,0,0,1,.434.44c.046.163-.043.3-.25.422a1.181,1.181,0,0,1-.7.147,1.578,1.578,0,0,1-.641-.2,1.333,1.333,0,0,1-.4-.336.928.928,0,0,1-.135-.268l-.015-.129-.8.069c-.042.371.183.707.706,1.009a2.748,2.748,0,0,0,1.356.354,2.378,2.378,0,0,0,1.309-.293.994.994,0,0,0,.415-.4c.543.077.957-.54,1.41-.695.188.108-.163.478-.235.6a2.187,2.187,0,0,1-.256.394c-.052.029-.105.058-.158.089a2.575,2.575,0,0,0-.859.724c-.295.448-.158.853.454,1.207.029.017.059.032.089.048Z" transform="translate(-28.097 -37.445)" fill="#d6a22b"/>
            </g>
            <g id="Group_41126" data-name="Group 41126">
              <path id="Path_31985" data-name="Path 31985" d="M123.95,60.578c1.21.7,1.231,1.828.029,2.527l-42,24.41a4.8,4.8,0,0,1-4.362-.009L1.973,43.834c-1.21-.7-1.216-1.819-.014-2.518l42-24.41a4.77,4.77,0,0,1,4.347,0ZM41.634,52.6a2.646,2.646,0,0,1,.237.154c-.31.44-.173.845.439,1.2a2.725,2.725,0,0,0,1.282.345,2.5,2.5,0,0,0,1.278-.31c.371-.215.548-.457.547-.716a.887.887,0,0,0-.525-.7,2.109,2.109,0,0,0-.686-.241c-.017-.115.121-.178.386-.189a1.873,1.873,0,0,1,1.013-.124,1.845,1.845,0,0,1,.178.089l.27.259.151.311.788-.1a1.332,1.332,0,0,0-.645-.8c.08-.116.049-.255-.106-.374-.18-.155-.195-.146-.151-.345a.232.232,0,0,0-.146-.243c-.28-.148-.481-.169-.607-.241-.256-.148-.019-.427-.221-.645-.175-.187-.318-.113-.611-.164l.267-.138c-.132-.283-.677-.029-.82-.112.207-.224.4-.112.714-.19l.267-.172v-.121l.134-.112c.118-.189-.106-.336-.2-.509a.752.752,0,0,0-.255-.371c-.437-.361-.146-.284-.168-.646l-.121-.38a3.27,3.27,0,0,0-.881-.612l-.135-.233a.453.453,0,0,0-.1-.078.922.922,0,0,0-.318-.094,1.43,1.43,0,0,1-.294-.1c-.129-.1-.2-.181-.308-.241a.641.641,0,0,0-.384-.075l-.4.095c-.285-.159-.339-.167-.417-.121l-.046-.146-.09-.138-.105-.112-.149-.035-.253-.06-.121-.241-.061-.259.445-.19.193-.112.237-.19-.075-.164c-.941-.528-.779-.481-.257-.646l.313.009.237-.19.282-.009.074-.112-.209-.138-.478-.155-.162.095-.178.017-.149.069-.3-.069-.254-.112-.134-.1-.179-.034-.134-.06.119-.052-.21-.241c.1-.077.327-.069.237-.207v-.207l.267-.207.327-.138.372-.06c.548-.435.588-.172.847-.2l.193-.026.223.009.523.3.105.129.194.147h.178l.328.086.149.086.239.1.075.129c.259.139.355.132.374.3l-.059.173-.237.172-.074.181c0,.052-.076.249,0,.295l.532-.226.163-.25.34-.3c.3-.138.908.043,1.251.069l.565-.017.4-.216.341-.285.177-.051-.058.138c-.086.068-.106.122-.075.14s.1,0,.194-.054l.193-.095.135.129.4-.146c.219.126.354.343.613.319l.252-.112.179.1.238-.225c.263-.221.535.017.8.1l.551.077-.356.207.477.086.373.146a.75.75,0,0,0,.923,0l-.387-.052-.224-.112-.253-.06-.076-.25.164-.078c.029-.086-.224-.112.028-.207.165.043.3.189.477.051l-.21-.327a2.041,2.041,0,0,0-.73-.164,2.961,2.961,0,0,1,1.421.3c.734.428,2.774.845,2.168.153l-.09-.224.118-.155-.061-.259.1-.233.16-.629.118-.19.074-.2c-.238-.086-.55.233-.848.181l-.657-.379.459-.3-.09-.207-.06-.259-.016-.25-.314-.2-.3-.173-.284-.233-.712.4c-.282.13-.58.164-.653.414-.058.173-.028.345-.28.474-.207.1-.273.032-.477-.086l-.387.017c-.3.12-.385.448-.712.517l-.343-.146c-.184-.259.259-.459.517-.682.325-.212.052-.3-.391-.638-.221-.271.068-.5-.388-.762-.281-.124-.447-.088-.362-.221.2-.2.426-.2.042-.423-.468-.27.858-.211,1.13-.224l.461-.147c.386-.034.507.155.82.2.208.035.446-.1.669-.026l-.267.155c.069.125.292.014.432.095l.12.172.283.1c.278.088.253.2.479.327.044-.164-.21-.345-.167-.509l.283-.2.268.1.283.009c.269-.067.461-.9,1.263-.44.194.112.15.155.181.31.016.181.165.233.345.371l.12.19.046.319-.236.276-.536-.034-.252.2-.731-.405-.4.026c-.047.046-.029.079.018.107.087.05.273.078.341.117.954.415.474.527.674.785l.12.12v.224a.878.878,0,0,0,.351.365c.41-.08-.143-.572.05-.58l.391.569.267-.1.4-.267c.028-.207-.167-.44.116-.6.355.2.151.49.36.69l.313-.112c.226.13.248.266.522.285.208-.121.089-.121-.031-.242l-.062-.293c.074-.129.193-.129.088-.259l-.388-.173c-.359-.224.267-.241.4-.388l-.105-.268,0-.276c.012-.088-.058-.138-.139-.185-.4-.231-.166-.183-.313-.885l-.3-.207-.017-.25-.359-.224-.163.129-.09-.172-.358-.224-.462-.078L54.727,36,54.385,36l.1-.25a1.506,1.506,0,0,1,.742-.31c-.167-.424-1.395-.442-1.442.181-.013.233.166.457.048.681a.935.935,0,0,1-1.047.306c-.209-.121.129-.348.154-.479.024-.221-.213-.176-.344-.354-.195-.267.4-.44.562-.638.462-.592.517-.227,1.085-.285l.207-.138c.17-.033-.013-.093,1.552.811.97.47.911.244,1.326.077a5.252,5.252,0,0,1,.981-.137,6.945,6.945,0,0,1,.952-.19c.787-.03,5.668,1.255,3.529.216a26.365,26.365,0,0,0-8.086-3.156c-.151-.023-.3-.045-.439-.073l.318-.185.341-.2L57.3,30.5l.341-.2.653-.379c.5-.293.516-.767-.006-1.069L52.7,25.632l-.344-.2-5.585-3.225a2.02,2.02,0,0,0-1.845,0l-7.078,4.113c-1.191.692.417,1.2.675,1.455a.7.7,0,0,1-.474-.222c-.341.164.136.371.138.577-.03.235-.252.577-.341.319l.059-.138-.209-.121L37.1,28c-.506-.069-.445.276-.236.431a2.643,2.643,0,0,0,.94.422l-.266.259c-.5.12-.951-.638-1.608-.052-.237.207.137.44.182.621,0,.086-.089.069.031.173l.313.13c.19.108.13.288-.027.4-.223.181-.535.121-.848.164-.292.037-.454.149-.718.2a4.358,4.358,0,0,1,.5.082l.491-.061a3.881,3.881,0,0,1,.952-.034,7.3,7.3,0,0,1,1.8.232c.812.3,1.819.791,1.885,1.569-.014.2.418.259.36.448-.059.155-.415.345-.549.492l.388.12-.208.121.343.181-.282.2c-.067,1.1-.054.873-.054.983,0,.19.494.44.182.6l-.314-.164c-.449.1.064.153-1.32.957-1,.584-.453.979-.914,1.517-.185.207-.329.327-.022.5.688-.12-.41.314-.236,1.237.565-.051.458-.509.814-.681.153.436-.286.9-.44,1.155-.163.147-.089.069.016.215.116.216-.406.369-.106.542.258.129.423.1.319.234l-.311.146-.1.233.1.112.031.241.061.241c.056.045.411.328.474.364.163.094.351.139.459.2.454.262.339.71.5.969l.031.259.061.224-.029.224.121.293.046.285.2.215c.19.334.31.1.6.138l.119.121c.017.163-.3.31-.474.414l-.341.25-.193-.026-.283.043-.3.138-.329-.224c-.15-.086-.432.078-.505.173l-.073.2-.3.087-.416.241.151.259c-.79,1.11-.291.71-.8,1.1-.193.147,0,.345.032.518l.091.328c.473.627-.749.829-2.7,1.638-.729.282-.286.378-1.263.423l-.475.155c-.3.138-.37.336-.7.474a5.585,5.585,0,0,0-1.009.4l-.371.25a.67.67,0,0,1-.261.054l.081-.124-.582-.336-4.653,1.044.582.336,1.055-.232,1.628.94-.4.612.583.337.354-.535a1.055,1.055,0,0,0,.275.22,1.9,1.9,0,0,0,.479.19l-.66.384.553.319,2.523-1.466L31.023,56l.314.181,3.376-.647L32.19,57l.552.319,3.22-1.871-.851-.491-3,.6,1.032-1.742-.851-.491L30.273,54.5c-.36-.261-.552-.514-.053-.869.416-.293,1.236.043,1.5-.268.073-.095-.165-.215,0-.31a.158.158,0,0,1,.193.009,2.212,2.212,0,0,0,1.2-.336l.4-.147c.391-.032.251.276.656.207l.342-.181a1.453,1.453,0,0,0,2.173-.069c.163.077.161.131.15.19.088.336.609.15,1.058.112a13.913,13.913,0,0,0,1.726-.172c.431-.095.8-.379,1.293-.319a1.925,1.925,0,0,1,.718.26M104.4,67.148c.343.112.67.181.5-.121l-.315-.474c-.218-.048-.19-.334-.226-.423a3.054,3.054,0,0,0-1.356-1.669c-.772-.446-.574.074-.916.014-.24-.038-.4-.273-.046-.215.2-.151-.107-.177-.314-.268a3.654,3.654,0,0,1-.508-.293c-.068-.039-.258-.128-.435-.23-.287-.166-.538-.364-.18-.433l.179-.1c-1.165-.964-1.386-.59-1.494-.931l.074-.13-.194-.129.148-.121A4.446,4.446,0,0,0,97.647,60.5l-.3.051-.642-.233-.7-.4-.135-.181c-.209-.069-.342.147-.6.017-.208-.119.019-.218.177-.31.4-.215.266-.431-.064-.69a2.494,2.494,0,0,0-.329-.249.55.55,0,0,0-.343-.087c-.149.017-.014.129-.253.095-1.421-.854-.876-.525-.615-.767a2.711,2.711,0,0,0-.909-.337c-.415-.128-.021-.11-.121-.327a6.053,6.053,0,0,0-1.938-.587c-.2-.451,2.5.773,3.187.276-.09-.1.147-.207.013-.337l-.538-.258c-.892-.382-.261-.514-.723-.78-.414-.221-.889-.117-1.292-.281a1.308,1.308,0,0,1-.193-.092,2.268,2.268,0,0,1-.21-.141c-.239-.138-.373-.06-.656-.138a2.125,2.125,0,0,1-.594-.3,11.152,11.152,0,0,0-1.286-.386c-.342.147.165.388-.25.526-.211-.115-.275-.245-.419-.327-2.111-1.219-1.049-.162-1.488-.018-.4-.222.148-.285-.4-.474-.126-.018-.239-.055-.254-.181-.238-.052-.4.2-.594.241-.158-.19.462-.562.238-.691-.488.239-.988-.051-1.22.916-.072.3-.92.413-1.382.336a1.144,1.144,0,0,1-.36-.131.989.989,0,0,1-.342-.325c1.51.483,1.42-.453,1.887-.647.259-.117,1.29-.4.917-.613-.173-.1-.814.064-1.173.018-.851-.1-.53.278-1.039.5-.628-.2.12-.429-.914-1.026l-.416.155a.711.711,0,0,1-.229-.079c-.11-.063-.16-.146-.309-.232-.209-.121-.149-.051-.491-.043-1.142.057-1.281-.419-1.669-.643-.493-.19-.8.024-1.314-.219-.2-.114-.222-.252-.463-.319-.261-.078-1.8.158-1.8-.457l.191-.371c.372.2.431.386.747.483a.9.9,0,0,0,.817-.146c.322-.5-.684-.855-.721-1.138l-.017-.319c-.113-.155-.485-.175-.681-.288-.49-.283-.012-.234-.841-.333l-.328-.121c-1-.432-.7-.1-1.342-.4a4.2,4.2,0,0,0-1.414-.078c-.193.06-.312.233-.519.267l-.373-.06c-.447-.058-.458.323-1.364-.2-.483.114-1.168.1-1.315.424-.186.353.5.424.878.639-.158.327-.486.1-.858.18s-.534.414-.965.405l-.4-.095-.461.009c-.387-.035-.611-.216-1.027-.129-.506.1-.746-.207-1.1-.207-.224.009-.118.138-.4.009-.249-.134-.165-.2-.4-.336-.508.188.093.374-.5.879l-.222.268c-.32.128-.532-.276-1.433-.845a6.253,6.253,0,0,0-.905.543l-.269-.017c-.3.137.763.647.005.827l-.626-.034c-.952.021-.245.427-1.636.138-.448-.1-.862.19-1.264.2-.193.095-.252.233-.505.207l-.522-.267c-.446-.151-.853.175-1.426.517-.029.1.194.25.017.354-.312.181-.668.354-.71.638.289.979-1.222,1.466,1.486,2.164l.269.207a9.418,9.418,0,0,1,.954.19c.3.175.006.538.257.75s.747.309.241.535c-.372.164-.684.121-.787.423-.1.319-.026.741-.381,1-.178.121-.416.207-.564.328a2.267,2.267,0,0,1-.592.448,1.2,1.2,0,0,0-.863.138.768.768,0,0,0-.444.569c-.146.466-.918.827-1.169,1.285l-.132.284c-.089.121-.3.207-.4.337-.308.388,1.326,1.675,3.653,1.078l.43-.2c.283-.078.328.017.552.095a.931.931,0,0,0,.142.036,1.681,1.681,0,0,0,.576.516,2.83,2.83,0,0,0,1.49.345,3.472,3.472,0,0,0,.966-.164,5.5,5.5,0,0,0,1.084-.491,2.63,2.63,0,0,0,.859-.724q.438-.666-.436-1.18c.888-.611,1.053-.131,3.079-.166a6.645,6.645,0,0,0,2.6-.526c-.079-.272-.783-.142-1.835-.75.089-.138.357-.12.4-.267s-.15-.259-.106-.405l.1-.233.238-.207,0-.293c-.162-.465.385-.163.472-.845.043-.25.31-.492.339-.733a1.764,1.764,0,0,0,.6-.451c-.1.188-.24.395-.153.572l.12.121-.029.19-.192.354-.1.354-.3.362-.043.336-.191.371c-.118.276-.5.517-.294.776l.507.034.314.181.461-.026.27.207c.383.233.582,0,.894.086l.358.155.863-.034c1.945-.047.767-.378.934-.7.257-.586-.3-.029-.949-.4-.439-.254-.031-.839.435-1.1.753.2-.354.785.661,1.052.644.166-.333.168.869.862.317.183.985.362,1.075.621s-.178.785-.277,1.043c.258.149.41-.249.715.052-.753.535-.71.193-1.586,1.285l-.237.207.047.3c-.025.1-.3.286-.17.359l.543-.091a2.62,2.62,0,0,1,.61-.078c.446-.069.742-.431,1.143-.561l.209.19a1.61,1.61,0,0,0,.833,0,1.406,1.406,0,0,1,.685,0l.418.069.253.026.835.241c.194.147-.087.466-.146.621s.062.362-.191.457c-.163.06-.551.009-.386.207a.556.556,0,0,0,.581-.009c.063.564-1.24.656-1.48,1.569a2.55,2.55,0,0,0-.176.638.383.383,0,0,0,.158.334c.108.063.241.009.289-.23.029-.19.386-.224.444-.379.073-.215-.448-.293-.272-.569s.734-.745,1-.593c.174.1.038.473.12.6l.254.2-.252.285.446-.069c.334.194.405.226.522.232a1.4,1.4,0,0,0,1.053-.664c.029-.224-.2-.526.2-.69.312-.129.626.069.894.155.6.18,1.34.454,1.849.552,1.294.236,3.454-.222,3.151-.863-.322-.708.944.024.653-.328l-.21-.172-.121-.241c.133-.164.462.1.656.121.223.026.386-.086.6-.017l-.193.233.328.155c.5.163.051.066-.043.319-.073.215.448.224.047.388-.26.1-.677.23-.37.408a.528.528,0,0,0,.49-.028c.223-.147-.033-.535.428-.63l.313.06.685-.087c1.023-.084,1.3.389,1.833.405a11.367,11.367,0,0,0,2.125-.491,1.274,1.274,0,0,1,.7-.13l.4-.06.042-.353c-.206-.127-.447-.085-.581-.147-.173-.1,0-.127-.017-.232s-.284-.216-.151-.328c.148-.1.328,0,.477.017l.506.035a2.754,2.754,0,0,1,1.057-.1c.209.052.313.164.522.233.539.188.712-.152,1.148.457.323.48.355.231.836.448.13.106-.16.218,0,.308.468.132.824-.23,1.226-.118.541.282.312.249.836.379l-.237.172c.259.159,1.068.071,1.132.108.045.026.031.071-.1.142a2.764,2.764,0,0,1-.8.034l-.447.035-.507-.172c-.26-.056-1.4-.133-1.652.129-.326.294.156.423-.993.854.313-.009.58-.181.893-.173.239.017.314.181.582.215l.64-.008c.223-.043.385-.345.7-.181l.415-.224a.577.577,0,0,1,.476-.173c.446.035.791.354,1.252.38.18.241-.115.355.3.31a6.627,6.627,0,0,1,1.743.193l.373.272c.283.043.208-.051.267-.155l.118-.086-.059-.155c0-.121.058-.207.236-.293-.082.144.041.318.215.418.175-.038.486-.254.68-.142l-.028.207.209.155.209.138.061.189.209.155.15.224ZM62.523,43.058c.272-.027-.267-.059,2.877.768l.313-.113.445-.259c.258-.15.145-.566.7-.354a.84.84,0,0,0,.788-.06c.282-.129.922-.086.95-.379.014-.129-.21-.259-.136-.405.132-.259.544-.216.8-.241l.341-.146.492.129c.253.043.536.017.8.086.179.034.82.25.909.095-1.6-1.193-3.493-1.081-2.762-1.44l.193-.078a14.293,14.293,0,0,1-1.464-.845c.4-.121,1.545.755,2.446.914-.034-.207-.429-.259-.508-.4l-.016-.164-.106-.2c-1.47-.849-2.931-1.965-4.314-2.164-.253.113.179.242-.088.345-.321-.037-.5-.27-.762-.44-.194-.078-.342.129-.6,0l-.034-.018c-.233-.135-.064-.387-.208-.551a5.325,5.325,0,0,0-1.343-.724c-.268.1-.119.19.031.293.134.1.24.293-.132.285a1.261,1.261,0,0,1-.672-.319,2.767,2.767,0,0,0-.284-.2.5.5,0,0,0-.55,0c-.059.138.512.33.642.405a.858.858,0,0,1-.729.077l-.194-.112-.268.018c-.259-.189-.458-.337-.525-.376a.576.576,0,0,0-.281-.073l-.193.009-.253-.026c-.357.1.211.483.346.56-.223.06-.716-.293-.819-.078l.284.3.165.146.016.181a.5.5,0,0,0,.1.071,9.664,9.664,0,0,0,1.111.49.608.608,0,0,1,.434.422.971.971,0,0,1-.412.983c-.206.189-.978.6-.635.871-.252.216-.743.259-.995.491l-.221.25a3.419,3.419,0,0,0-.652.5c-.033,1.041-.111,1.022.1,1.141l.059.031.254.112.045.147.224.146c.6.348.759-.167,1.041-.276l.432.009c.238-.034.371-.233.624-.19l.314.146c.766.085.5.016.8.19l.566.121ZM81.2,76.012a2.384,2.384,0,0,0,1.278-.31c.371-.216.548-.457.546-.716a.836.836,0,0,0-.51-.69,2.127,2.127,0,0,0-.7-.25,3.285,3.285,0,0,0-.67-.06,2.809,2.809,0,0,1,1.158-.4,1.786,1.786,0,0,1,1.088.233l.285.267.135.3.8-.086a1.458,1.458,0,0,0-.749-.862,2.835,2.835,0,0,0-1.491-.345,4.088,4.088,0,0,0-.952.155,5.325,5.325,0,0,0-.926.4,2.187,2.187,0,0,0,.256-.394c.072-.126.423-.5.251-.6-.468.146-.882.764-1.425.687a.571.571,0,0,0,.057-.324.994.994,0,0,0-.46-.618l.084-.012c.3-.058.211-.158.035-.26-.035-.02-.072-.04-.111-.059a1.048,1.048,0,0,1-.333-.291l.434-.252,1.6.922.579-.336-2.18-1.259-1.456.846a.966.966,0,0,1-.161.059.519.519,0,0,1-.418-.043,1.077,1.077,0,0,1-.3-.3L76.46,71.2l.139-.081-.612-.354-.7.406-.911-.526,3.63-.518-.7-.4-3.659.517-.563.327,1.183.683a1.524,1.524,0,0,1-.615-.2l-.478-.276-.49.147.432.026-.535.224a.936.936,0,0,0-.5.5.932.932,0,0,1-.369.474c-.148.086-.385.362-.624.241-.219.113-.278.284-.071.4a.781.781,0,0,0,.177.07l.536.034.418.259a.645.645,0,0,0,.059.037,2.945,2.945,0,0,0,.9.2,2.136,2.136,0,0,1,.731.285c.119.069.226.145.346.214a1.639,1.639,0,0,0,.192.1l.463.216c.165.2-.087.293-.042.474a.152.152,0,0,0,.072.087,1.484,1.484,0,0,0,.554.033l-.267.224.105.112c.135.2-.221.319-.31.491-.133.2-.058.293.108.491a.789.789,0,0,0,.216.214.544.544,0,0,0,.365.053l.327-.121-.088.173.4.009.329.155a1.249,1.249,0,0,0,.863-.069,2.526,2.526,0,0,1,.759-.147,2.575,2.575,0,0,0,1.115-.25,3.842,3.842,0,0,0,.682-.418,2.642,2.642,0,0,0,1.178.289M61.825,64.605a4.427,4.427,0,0,0,1.8-.613,2.082,2.082,0,0,0,1.051-1.043q.13-.543-.631-.983a2.774,2.774,0,0,0-1.7-.362,4.466,4.466,0,0,0-1.812.6,2.343,2.343,0,0,0-.975.9.788.788,0,0,0-.24.136c-.148.138-.265.448-.027.6l.026.016a.537.537,0,0,0,.377.053,1.882,1.882,0,0,0,.433.327,2.85,2.85,0,0,0,1.7.363M22.011,41.618q-.153.53.631.982a2.77,2.77,0,0,0,1.7.363,4.474,4.474,0,0,0,1.813-.6,2.05,2.05,0,0,0,1.036-1.052q.152-.53-.63-.983a2.777,2.777,0,0,0-1.7-.362,4.467,4.467,0,0,0-1.812.6,2.053,2.053,0,0,0-1.037,1.052M50.074,58.043a2.152,2.152,0,0,0,1.2-.25c.415-.241.548-.543.412-.879a2.092,2.092,0,0,0,1.175-.216c.282-.163.414-.379.354-.621a1.128,1.128,0,0,0-.615-.7,2.7,2.7,0,0,0-1.207-.354,1.8,1.8,0,0,0-1.086.2.605.605,0,0,0-.354.69,2.291,2.291,0,0,0-1.517.241c-.326.189-.473.431-.427.7a1.2,1.2,0,0,0,.689.793,3.026,3.026,0,0,0,1.372.4M30.15,46.179l-1.732-1,1.8-.009a8.169,8.169,0,0,0,1.235-.077,2.015,2.015,0,0,0,.713-.224c.356-.207.5-.431.472-.69a.994.994,0,0,0-.539-.655,2.475,2.475,0,0,0-.97-.336,4.039,4.039,0,0,0-1.116.008l.21.466a1.984,1.984,0,0,1,1.252.173c.179.1.284.215.3.345a.364.364,0,0,1-.222.337,1.552,1.552,0,0,1-.609.164c-.268.017-.64.026-1.161.035H27.491l-.549.319,2.6,1.5ZM67.011,68.166l.608-.354L65.9,66.821l1.8-.009a9.686,9.686,0,0,0,1.235-.078,1.938,1.938,0,0,0,.7-.233c.356-.207.5-.431.472-.69a.971.971,0,0,0-.539-.655,2.4,2.4,0,0,0-.955-.327,4.04,4.04,0,0,0-1.116.009l.211.466a1.945,1.945,0,0,1,1.251.172c.179.1.284.216.3.345a.409.409,0,0,1-.237.328,1.361,1.361,0,0,1-.609.164c-.253.026-.625.035-1.146.043l-2.307-.009-.549.319ZM50.069,54.672l.579-.336-2.673-1.543-1.1.638.582.336.519-.3,1.344.776L44.55,55.2l.7.405ZM71.5,70.434a2.293,2.293,0,0,0,1.308-.293.748.748,0,0,0,.443-.6c.014-.233-.136-.457-.479-.656l1.934-.068.5-.293-2.225-1.285-.579.336,1.374.793-1.89.077-.489.284.477.207a1.052,1.052,0,0,1,.495.474c.045.164-.028.293-.222.406a1.126,1.126,0,0,1-.654.138,1.768,1.768,0,0,1-.716-.224,1.356,1.356,0,0,1-.644-.75l-.789.129a1.747,1.747,0,0,0,.825.94,3,3,0,0,0,1.326.388m-38.963-22.5a2.247,2.247,0,0,0,1.293-.3.759.759,0,0,0,.458-.6c.014-.233-.151-.466-.494-.664l1.949-.06.5-.293-2.225-1.285-.579.336,1.374.793-1.89.077-.489.284.462.2a1.108,1.108,0,0,1,.51.482.366.366,0,0,1-.222.406,1.081,1.081,0,0,1-.669.129,1.633,1.633,0,0,1-.7-.215,1.4,1.4,0,0,1-.659-.759l-.774.138a1.732,1.732,0,0,0,.81.931,3.082,3.082,0,0,0,1.341.4m-7.818,4.751,3.22-1.871L27.39,50.5l-2.4,1.4.522-2.483-.553-.319-3.22,1.871.553.319,2.345-1.363-.507,2.423Zm83.746,5.225-4.237.957.523.3.966-.216,1.479.854-.369.56.537.31,1.638-2.457ZM15.858,45.938l1.81-1.052-.553-.319L15.335,45.6a2.19,2.19,0,0,1-.921.293,1.634,1.634,0,0,1-.864-.207c-.254-.146-.358-.311-.345-.491q.044-.286.489-.543l1.78-1.035L14.92,43.3l-1.81,1.052c-.46.267-.681.552-.68.845s.2.56.6.793a2.7,2.7,0,0,0,1.371.345,2.747,2.747,0,0,0,1.457-.4m1.5,2.5.687.4.321-1.173a2.016,2.016,0,0,0,1.711-.182c.356-.207.518-.422.473-.638s-.315-.474-.808-.759l-1.209-.7-3.22,1.871.538.31,1.083-.63.732.423Zm-6.393-3.949a1.771,1.771,0,0,0,1-.216c.282-.164.415-.328.384-.517a1.08,1.08,0,0,0-.405-.629,1.6,1.6,0,0,1-.434-.509l.147-.259.446-.086a1.457,1.457,0,0,1,.492.164,1.427,1.427,0,0,1,.4.337.792.792,0,0,1,.181.345l.7-.06a.931.931,0,0,0-.241-.483,2.162,2.162,0,0,0-.508-.414,2.439,2.439,0,0,0-1.059-.319,1.645,1.645,0,0,0-1.011.207c-.3.172-.43.354-.384.552l.136.3a2.688,2.688,0,0,0,.389.4,1.017,1.017,0,0,1,.315.405l-.147.258-.447.087a1.392,1.392,0,0,1-.551-.181,1.108,1.108,0,0,1-.586-.836l-.759.043a1.453,1.453,0,0,0,.825,1.078,2.482,2.482,0,0,0,1.119.336m93.382,11.476a2.934,2.934,0,0,0-1.531.371c-.445.259-.652.551-.65.879,0,.345.242.638.69.9a2.991,2.991,0,0,0,1.654.354l.013-.371-.67-.06a1.881,1.881,0,0,1-.537-.207.655.655,0,0,1-.406-.6c-.017-.232.147-.431.443-.6a1.942,1.942,0,0,1,1.041-.259,2.077,2.077,0,0,1,1.028.268,1.309,1.309,0,0,1,.374.3l.121.4.655-.017c.028-.38-.183-.69-.646-.957a3.088,3.088,0,0,0-1.58-.4M87.041,45.972a2.937,2.937,0,0,0-1.531.371c-.445.259-.651.552-.65.88,0,.345.242.638.69.9a2.988,2.988,0,0,0,1.654.354l.012-.371-.67-.06a1.8,1.8,0,0,1-.537-.207.654.654,0,0,1-.405-.6c-.017-.232.147-.431.443-.6a2.06,2.06,0,0,1,1.041-.259,2.088,2.088,0,0,1,1.043.276,1.265,1.265,0,0,1,.359.293l.122.4.655-.017c.043-.371-.183-.69-.646-.957a3.135,3.135,0,0,0-1.58-.4M113.5,63.76a2.82,2.82,0,0,0,1.5-.388c.46-.267.682-.552.635-.871-.016-.319-.3-.621-.824-.923l-1.015-.586L110.863,62.7l.971.56a3.378,3.378,0,0,0,1.67.5M96.118,50.784,93.181,52.49l.971.56a3.33,3.33,0,0,0,1.669.5,2.819,2.819,0,0,0,1.5-.388c.46-.267.682-.552.65-.862-.017-.319-.316-.629-.839-.931ZM21.034,50.56l.5-.293-1.792-1.035.861-.5,1.553.9.489-.284-1.553-.9.861-.5,1.733,1,.5-.293-2.285-1.319-3.22,1.871Zm14.934,8.622.5-.293L34.7,57.862l.861-.5,1.553.9.489-.284-1.553-.9.861-.5,1.733,1,.5-.293-2.285-1.319-3.22,1.871Zm74.741.026-2.937,1.707.508.293.994-.578.657.379-.292.983.627.362.306-1.061a1.87,1.87,0,0,0,1.548-.173c.326-.189.488-.387.443-.586s-.3-.431-.749-.69ZM90.264,47.4,87.327,49.11l.508.293.994-.578.642.371-.277.992.627.362.307-1.06a1.87,1.87,0,0,0,1.547-.173c.326-.19.488-.388.443-.586s-.3-.431-.749-.69Zm10.2,5.889-.445.259.9.517-2.492,1.448.508.293,2.492-1.448.9.517.445-.259ZM93.34,49.18,90.4,50.887l2.136,1.233.474-.275-1.628-.94.786-.457,1.419.819.431-.25L92.6,50.2l.786-.457,1.583.914.46-.267Zm-29.765,17,3.783-2.2-1.389-.8-.579.336.776.448-3.2,1.862ZM26.091,44.541l3.783-2.2L28.5,41.549l-.579.336.762.44-3.2,1.862Zm41.61.836c-.194-.095-.432.009-.626-.1l-.329-.19-.193-.06-.195-.2a.657.657,0,0,0-.136-.1c-.138-.08-.338-.152-.46-.057l-.089.051.493.25c-.059.173-.3-.069-.417,0l.015.147-.207.121.135.181.269.138a.746.746,0,0,0,.134.1c.2.114.447.164.686.275a.6.6,0,0,0,.388.086l.387.052.163-.2.1-.2c.1-.106.07-.186-.062-.263l-.058-.031m31.717,7.312L96.481,54.4l.508.293,2.937-1.707Z" transform="translate(-1.061 -16.383)"/>
            </g>
            <g id="Group_41127" data-name="Group 41127" transform="translate(42.875 6.206)">
              <path id="Path_31986" data-name="Path 31986" d="M17.662,18.984l.341-.2,6.421,3.707a4.586,4.586,0,0,0-1.3-.354Z" transform="translate(-17.662 -18.786)" fill="#485f69"/>
            </g>
            <g id="Group_41128" data-name="Group 41128" transform="translate(49.735 9.051)">
              <path id="Path_31987" data-name="Path 31987" d="M22.227,20.086,20.661,21c-.054-.037-.111-.073-.171-.108s-.113-.061-.171-.09l1.565-.91Z" transform="translate(-20.319 -19.887)" fill="#485f69"/>
            </g>
            <g id="Group_41129" data-name="Group 41129" transform="translate(37.785 7.982)">
              <path id="Path_31988" data-name="Path 31988" d="M22.208,21.865c-.969.627-1.329,1.442-1.052,2.144l-5.465-3.155,2.374-1.38Z" transform="translate(-15.692 -19.473)" fill="#fee182"/>
            </g>
            <g id="Group_41130" data-name="Group 41130" transform="translate(50.077 9.25)">
              <path id="Path_31989" data-name="Path 31989" d="M27.6,23.189c.522.3.51.776.006,1.069l-.653.379-6.433-3.714-.072-.049,1.566-.91Z" transform="translate(-20.451 -19.964)" fill="#fee182"/>
            </g>
            <g id="Group_41131" data-name="Group 41131" transform="translate(42.476 14.287)">
              <path id="Path_31990" data-name="Path 31990" d="M17.623,22a.728.728,0,0,1-.115-.083l.242.139A.683.683,0,0,1,17.623,22Z" transform="translate(-17.508 -21.915)" fill="#ee5550"/>
            </g>
            <g id="Group_41132" data-name="Group 41132" transform="translate(42.926 14.547)">
              <path id="Path_31991" data-name="Path 31991" d="M17.731,22.067a.125.125,0,0,1-.049-.051l.128.074A.205.205,0,0,1,17.731,22.067Z" transform="translate(-17.682 -22.015)" fill="#ee5550"/>
            </g>
            <g id="Group_41133" data-name="Group 41133" transform="translate(20.925 23.565)">
              <path id="Path_31992" data-name="Path 31992" d="M14.367,26.867a2.05,2.05,0,0,1-1.036,1.052,4.474,4.474,0,0,1-1.813.6,2.77,2.77,0,0,1-1.7-.363q-.784-.452-.631-.982a2.053,2.053,0,0,1,1.037-1.052,4.467,4.467,0,0,1,1.812-.6,2.777,2.777,0,0,1,1.7.362q.784.453.63.983Zm-2.911,1.155a3.632,3.632,0,0,0,1.233-.474,1.908,1.908,0,0,0,.814-.715c.1-.233,0-.448-.316-.63a1.651,1.651,0,0,0-1.088-.181,3.6,3.6,0,0,0-1.247.465,1.936,1.936,0,0,0-.8.724c-.1.232,0,.448.316.629a1.649,1.649,0,0,0,1.087.181" transform="translate(-9.163 -25.507)" fill="#fff"/>
            </g>
            <g id="Group_41134" data-name="Group 41134" transform="translate(7.963 25.451)">
              <path id="Path_31993" data-name="Path 31993" d="M8.248,26.565a2.164,2.164,0,0,1,.509.414A.93.93,0,0,1,9,27.462l-.7.06a.789.789,0,0,0-.181-.345,1.435,1.435,0,0,0-.4-.337,1.452,1.452,0,0,0-.492-.164l-.447.086-.147.259a1.6,1.6,0,0,0,.434.509,1.08,1.08,0,0,1,.405.63c.031.19-.1.353-.384.517a1.772,1.772,0,0,1-1,.216,2.483,2.483,0,0,1-1.118-.336,1.452,1.452,0,0,1-.825-1.078l.759-.043a1.108,1.108,0,0,0,.586.836,1.391,1.391,0,0,0,.551.181l.446-.087.147-.258a1.02,1.02,0,0,0-.315-.405,2.715,2.715,0,0,1-.389-.4L5.794,27c-.046-.2.087-.38.384-.552a1.644,1.644,0,0,1,1.011-.207,2.438,2.438,0,0,1,1.059.319Z" transform="translate(-4.145 -26.237)" fill="#fff"/>
            </g>
            <g id="Group_41135" data-name="Group 41135" transform="translate(88.212 31.573)">
              <path id="Path_31994" data-name="Path 31994" d="M36.545,29.832a1.668,1.668,0,0,1-.715-.259l-.612-.354,1.053-.612.627.362a1.056,1.056,0,0,1,.449.379c.031.1-.043.216-.236.327a1,1,0,0,1-.566.155Z" transform="translate(-35.217 -28.608)" fill="#ee5550"/>
            </g>
            <g id="Group_41136" data-name="Group 41136" transform="translate(27.928 36.301)">
              <path id="Path_31995" data-name="Path 31995" d="M12.089,30.5c.03-.022.062-.044.1-.066l-.31.47A.429.429,0,0,1,12.089,30.5Z" transform="translate(-11.875 -30.438)" fill="#cb4844"/>
            </g>
            <g id="Group_41137" data-name="Group 41137" transform="translate(24.11 35.522)">
              <path id="Path_31996" data-name="Path 31996" d="M14.2,32.637l-.354.535-.583-.337.4-.612-1.628-.94-1.055.232L10.4,31.18l4.653-1.044.582.336-.081.124ZM12.763,31.12l1.18.681.273-.415.31-.47.155-.236Z" transform="translate(-10.396 -30.137)" fill="#fff"/>
            </g>
            <g id="Group_41140" data-name="Group 41140" transform="translate(109.802 44.61)">
              <path id="Path_31999" data-name="Path 31999" d="M48.353,35.164c.047.319-.175.6-.635.871a2.82,2.82,0,0,1-1.5.388,3.377,3.377,0,0,1-1.67-.5l-.971-.56,2.937-1.707,1.015.586c.523.3.808.6.824.923Zm-2.183.854a1.835,1.835,0,0,0,1.025-.267c.683-.4.621-.811-.155-1.259l-.493-.285-2,1.164.553.319a2.208,2.208,0,0,0,1.074.327" transform="translate(-43.577 -33.656)" fill="#fff"/>
            </g>
          </g>
          <g id="Group_41224" data-name="Group 41224">
            <g id="Group_41062" data-name="Group 41062" transform="translate(21.775 24.058)">
              <path id="Path_31921" data-name="Path 31921" d="M12.666,25.9c.314.181.419.4.316.63a1.908,1.908,0,0,1-.814.715,3.632,3.632,0,0,1-1.233.474,1.649,1.649,0,0,1-1.087-.181c-.314-.181-.419-.4-.316-.629a1.936,1.936,0,0,1,.8-.724,3.6,3.6,0,0,1,1.247-.465,1.651,1.651,0,0,1,1.088.181Z" transform="translate(-9.493 -25.698)"/>
            </g>
            <g id="Group_41085" data-name="Group 41085" transform="translate(41.483 36.282)">
              <path id="Path_31944" data-name="Path 31944" d="M17.453,31.4a.574.574,0,0,1-.33-.431.389.389,0,0,1,.1-.257l.08-.019.431.026.372-.164.167-.119a1.6,1.6,0,0,1,.562.2c.209.121.33.258.33.413a.58.58,0,0,1-.31.405,1.322,1.322,0,0,1-.684.155,1.623,1.623,0,0,1-.715-.207Z" transform="translate(-17.123 -30.431)"/>
            </g>
            <g id="Group_41089" data-name="Group 41089" transform="translate(56.455 20.006)">
              <path id="Path_31948" data-name="Path 31948" d="M35,27.712l.106.2.016.164c.078.138.474.189.508.4-.8-.141-2.069-1.028-2.446-.914a13.771,13.771,0,0,0,1.464.845l-.193.078c-.16.079-.177.169-.042.247,1.192.689-.149-.51,2.8,1.193-.089.155-.73-.06-.909-.095-.268-.069-.551-.043-.8-.086l-.492-.129-.341.146-.224.009c-.982.1-.415.378-.442.638-.028.293-.669.25-.95.379a.841.841,0,0,1-.789.06c-.572-.22-.436.2-.7.354l-.445.259-.312.112c-1.573-.413-.927-.371-1.848-.449-.388-.051-.6-.362-1.029-.319l-.505.1-.566-.121c-.3-.173-.037-.1-.8-.19l-.314-.147c-.254-.043-.387.155-.624.19l-.432-.009c-.3.117-.425.631-1.041.276l-.224-.146-.045-.147c-.034-.015.12.052-.313-.143-.162-.094-.148-.159-.122-.331l0-.431.028-.379a3.416,3.416,0,0,1,.652-.5l.221-.25c.252-.233.743-.276.995-.491-.523-.407,1.35-.892,1.047-1.854a.609.609,0,0,0-.434-.423,9.649,9.649,0,0,1-1.111-.489.5.5,0,0,1-.1-.071l-.016-.181-.165-.146-.284-.3c.1-.215.6.138.819.078-.135-.078-.7-.457-.346-.56l.253.026.193-.009a.576.576,0,0,1,.281.073c.067.039.266.187.525.376l.268-.018.194.112a.857.857,0,0,0,.729-.077c-.13-.075-.7-.267-.642-.405.335-.195.55-.012.835.207a1.257,1.257,0,0,0,.672.319c.372.009.266-.189.132-.284-.15-.1-.3-.19-.031-.293,2.3,1.052.984.949,1.551,1.276l.034.018c.254.129.4-.078.6,0,.258.169.436.4.762.44.267-.1-.166-.232.087-.345,1.376.2,2.838,1.312,4.314,2.164Z" transform="translate(-22.921 -24.129)" fill="#d6a22b"/>
            </g>
            <g id="Group_41090" data-name="Group 41090" transform="translate(64.496 28.242)">
              <path id="Path_31949" data-name="Path 31949" d="M28.237,28.1c.132.076.167.156.062.263l-.1.2-.163.2-.387-.052a.6.6,0,0,1-.388-.086c-.24-.111-.489-.161-.686-.275a.749.749,0,0,1-.134-.1l-.269-.138-.135-.181.208-.121-.015-.147c.118-.069.357.173.417,0l-.493-.25.089-.051c.123-.1.323-.023.46.057a.664.664,0,0,1,.136.1l.195.2.194.06.329.19c.194.112.432.009.626.1l.058.031Z" transform="translate(-26.034 -27.318)"/>
            </g>
            <g id="Group_41097" data-name="Group 41097" transform="translate(93.086 34.952)">
              <path id="Path_31956" data-name="Path 31956" d="M38.731,31.727a2.164,2.164,0,0,1-1.074-.327l-.553-.319,2-1.164.508.293c.777.448.823.854.14,1.251a1.84,1.84,0,0,1-1.025.267Z" transform="translate(-37.105 -29.916)"/>
            </g>
            <g id="Group_41098" data-name="Group 41098" transform="translate(26.476 36.065)">
              <path id="Path_31957" data-name="Path 31957" d="M12.979,30.649a.429.429,0,0,0-.214.4l-.273.415-1.18-.681,1.918-.44-.155.236c-.034.021-.066.044-.1.066Z" transform="translate(-11.313 -30.347)"/>
            </g>
            <g id="Group_41102" data-name="Group 41102" transform="translate(49.588 39.104)">
              <path id="Path_31961" data-name="Path 31961" d="M20.269,31.994a.317.317,0,0,1,.192-.354,1.051,1.051,0,0,1,.61-.112,1.3,1.3,0,0,1,.641.181.541.541,0,0,1,.314.371.316.316,0,0,1-.192.354,1.055,1.055,0,0,1-.61.112,1.512,1.512,0,0,1-.64-.181.576.576,0,0,1-.315-.37Z" transform="translate(-20.262 -31.524)"/>
            </g>
            <g id="Group_41103" data-name="Group 41103" transform="translate(47.794 39.989)">
              <path id="Path_31962" data-name="Path 31962" d="M21.583,32.5c.06.155-.028.293-.221.405a1.1,1.1,0,0,1-.7.13,1.938,1.938,0,0,1-.685-.224.84.84,0,0,1-.39-.4c-.06-.155.013-.3.207-.414a1.177,1.177,0,0,1,.7-.129,1.9,1.9,0,0,1,.716.224A.782.782,0,0,1,21.583,32.5Z" transform="translate(-19.567 -31.867)"/>
            </g>
            <g id="Group_41105" data-name="Group 41105" transform="translate(105.328 42.031)">
              <path id="Path_31964" data-name="Path 31964" d="M43.6,32.657l-.68,1.018-1.075-.621Z" transform="translate(-41.845 -32.657)"/>
            </g>
            <g id="Group_41109" data-name="Group 41109" transform="translate(57.049 43.624)">
              <path id="Path_31968" data-name="Path 31968" d="M24.981,33.549a1.357,1.357,0,0,1-.414.47,2.648,2.648,0,0,1-.673.382,1.6,1.6,0,0,1-.412-.167c-.224-.129-.33-.259-.33-.414a.534.534,0,0,1,.31-.388,1.169,1.169,0,0,1,.684-.155,1.409,1.409,0,0,1,.716.19.9.9,0,0,1,.12.082Z" transform="translate(-23.151 -33.274)"/>
            </g>
            <g id="Group_41110" data-name="Group 41110" transform="translate(55.497 44.597)">
              <path id="Path_31969" data-name="Path 31969" d="M22.55,33.967c.049-.046.1-.091.142-.131.237-.19.267-.224.669-.147l.132.015a1.458,1.458,0,0,0,.286.21,2.108,2.108,0,0,0,.7.25,2.836,2.836,0,0,0,.67.06,2.81,2.81,0,0,1-1.159.4,1.789,1.789,0,0,1-1.088-.233l-.284-.268Z" transform="translate(-22.55 -33.651)"/>
            </g>
            <g id="Group_41123" data-name="Group 41123" transform="translate(79.109 57.973)">
              <path id="Path_31982" data-name="Path 31982" d="M33.379,39.047c.224.129.345.267.331.414a.529.529,0,0,1-.31.405,1.214,1.214,0,0,1-.684.155,1.5,1.5,0,0,1-.7-.2.97.97,0,0,1-.176-.128.336.336,0,0,0,0-.062,1.131,1.131,0,0,0-.143-.346.518.518,0,0,1,.273-.3,1.27,1.27,0,0,1,.684-.155,1.631,1.631,0,0,1,.73.215Z" transform="translate(-31.693 -38.83)"/>
            </g>
            <g id="Group_41138" data-name="Group 41138" transform="translate(108.657 43.377)">
              <path id="Path_31997" data-name="Path 31997" d="M44.461,34.4a1.67,1.67,0,0,1-.715-.259l-.612-.354,1.053-.612.627.362a1.185,1.185,0,0,1,.463.388c.031.1-.058.207-.251.319A1,1,0,0,1,44.461,34.4Z" transform="translate(-43.134 -33.178)"/>
            </g>
            <g id="Group_41139" data-name="Group 41139" transform="translate(110.768 45.161)">
              <path id="Path_31998" data-name="Path 31998" d="M46.448,34.154c.776.448.838.862.155,1.259a1.835,1.835,0,0,1-1.025.267,2.207,2.207,0,0,1-1.074-.327l-.553-.319,2-1.164Z" transform="translate(-43.951 -33.869)"/>
            </g>
            <g id="Group_41141" data-name="Group 41141" transform="translate(59.388 45.698)">
              <path id="Path_32000" data-name="Path 32000" d="M27.1,34.282c.314.181.419.4.3.621a1.856,1.856,0,0,1-.8.724,3.683,3.683,0,0,1-1.248.466,1.573,1.573,0,0,1-1.073-.173,1.017,1.017,0,0,1-.226-.171c.441-.1.892-.205,1.31-.32a3.336,3.336,0,0,0,1.366-.638c-.034-.024-.067-.045-.1-.064-.413-.239-.73-.029-1.227-.014a2.668,2.668,0,0,1-.67-.147l.014-.009a3.652,3.652,0,0,1,1.262-.457,1.615,1.615,0,0,1,1.088.181Z" transform="translate(-24.057 -34.077)"/>
            </g>
          </g>
          <g id="Group_41143" data-name="Group 41143" transform="translate(86.266 31.021)">
            <path id="Path_32001" data-name="Path 32001" d="M37.264,30.481l-.307,1.06-.627-.362.277-.992-.642-.371-.994.578-.508-.293L37.4,28.394l1.105.638c.448.259.7.491.749.69s-.117.4-.443.586A1.87,1.87,0,0,1,37.264,30.481Zm-.241-.569a1.668,1.668,0,0,0,.715.259,1,1,0,0,0,.566-.155c.192-.112.266-.224.236-.327a1.056,1.056,0,0,0-.449-.379l-.627-.362-1.053.612Z" transform="translate(-34.464 -28.394)" fill="#fff"/>
          </g>
        </g>
      </g>
      <g id="Group_41209" data-name="Group 41209" transform="translate(60.038)">
        <g id="Group_41166" data-name="Group 41166" transform="translate(0.409 25.927)">
          <g id="Group_41150" data-name="Group 41150">
            <g id="Group_41149" data-name="Group 41149">
              <g id="Group_41146" data-name="Group 41146" transform="translate(0 15.756)">
                <path id="Path_32002" data-name="Path 32002" d="M78.984,20.691,78.96,29.2c-.011,4.027-2.651,8.048-7.925,11.119C60.42,46.5,43.141,46.5,32.456,40.32c-5.377-3.111-8.062-7.2-8.051-11.276l.024-8.509C24.418,24.614,27.1,28.7,32.48,31.811c10.685,6.182,27.964,6.182,38.579,0C76.333,28.739,78.973,24.718,78.984,20.691Z" transform="translate(-24.405 -20.535)" fill="#d6a22b"/>
              </g>
              <g id="Group_41148" data-name="Group 41148" transform="translate(0.024)">
                <path id="Path_32003" data-name="Path 32003" d="M70.918,19.071c10.685,6.182,10.742,16.212.126,22.395s-27.894,6.183-38.579,0-10.741-16.213-.126-22.4S60.234,12.888,70.918,19.071Z" transform="translate(-24.415 -14.434)" fill="#fed44c"/>
                <g id="Group_41147" data-name="Group 41147" transform="translate(3.466 3.472)">
                  <path id="Path_32004" data-name="Path 32004" d="M67.057,19.953c-4.653-2.679-10.885-4.176-17.586-4.176-6.684,0-12.9,1.479-17.516,4.176-3.993,2.332-6.2,5.219-6.2,8.142a5.413,5.413,0,0,0,.156,1.27c.556-2.453,2.656-4.836,6.042-6.8,4.618-2.7,10.833-4.175,17.516-4.175,6.7,0,12.933,1.5,17.586,4.175,3.42,1.984,5.607,4.454,6.163,6.942a5.725,5.725,0,0,0,.156-1.323C73.376,25.277,71.067,22.285,67.057,19.953Z" transform="translate(-25.757 -15.778)" fill="#e8b134"/>
                  <path id="Path_32005" data-name="Path 32005" d="M66.961,20.964c-4.653-2.679-10.885-4.175-17.586-4.175-6.684,0-12.9,1.479-17.516,4.175-3.385,1.967-5.486,4.35-6.042,6.8.556,2.488,2.743,4.976,6.163,6.959,4.653,2.7,10.885,4.175,17.586,4.175,6.684,0,12.9-1.479,17.516-4.175,3.385-1.984,5.486-4.367,6.041-6.82-.556-2.488-2.743-4.959-6.163-6.942Z" transform="translate(-25.661 -14.179)" fill="#e8b134"/>
                </g>
              </g>
            </g>
          </g>
          <g id="Group_41165" data-name="Group 41165" transform="translate(11.642 7.539)">
            <g id="Group_41164" data-name="Group 41164">
              <g id="Group_41151" data-name="Group 41151" transform="translate(26.539 1.906)">
                <path id="Path_32006" data-name="Path 32006" d="M40.682,18.091l0,1.377-1.49.868,0-1.377Z" transform="translate(-39.189 -18.091)" fill="#f1bb34"/>
              </g>
              <g id="Group_41152" data-name="Group 41152" transform="translate(15.367 2.732)">
                <path id="Path_32007" data-name="Path 32007" d="M34.863,21.519l0-1.377c0-.435.32-.841.952-1.209a4.352,4.352,0,0,1,2.392-.519,7.17,7.17,0,0,1,2.85.747l0,1.377a7.17,7.17,0,0,0-2.85-.747,4.35,4.35,0,0,0-2.392.519c-.631.368-.95.774-.952,1.209Z" transform="translate(-34.863 -18.411)" fill="#f1bb34"/>
              </g>
              <g id="Group_41153" data-name="Group 41153" transform="translate(17.86 4.629)">
                <path id="Path_32008" data-name="Path 32008" d="M41.326,19.145l0,1.377-5.494,3.2,0-1.377Z" transform="translate(-35.828 -19.145)" fill="#f1bb34"/>
              </g>
              <g id="Group_41154" data-name="Group 41154" transform="translate(23.354 4.629)">
                <path id="Path_32009" data-name="Path 32009" d="M40.467,22.565l0,1.377a6.752,6.752,0,0,0-2.507-3.419l0-1.377a6.754,6.754,0,0,1,2.507,3.42Z" transform="translate(-37.956 -19.145)" fill="#f1bb34"/>
              </g>
              <g id="Group_41155" data-name="Group 41155" transform="translate(25.861 7.588)">
                <path id="Path_32010" data-name="Path 32010" d="M43.539,20.291l0,1.377-4.608.461,0-1.377Z" transform="translate(-38.927 -20.291)" fill="#f1bb34"/>
              </g>
              <g id="Group_41156" data-name="Group 41156" transform="translate(10.089 4.19)">
                <path id="Path_32011" data-name="Path 32011" d="M32.819,20.352l0-1.377a1.95,1.95,0,0,0,.024.306q.267,1.644,2.8,4.026l0,1.377q-2.534-2.384-2.8-4.025a1.925,1.925,0,0,1-.024-.307Z" transform="translate(-32.819 -18.975)" fill="#f1bb34"/>
              </g>
              <g id="Group_41157" data-name="Group 41157" transform="translate(14.297 9.904)">
                <path id="Path_32012" data-name="Path 32012" d="M35.739,23.3l0,1.377c0-.022,0-.044,0-.066a4.131,4.131,0,0,0-1.284-2.05l0-1.377a4.131,4.131,0,0,1,1.284,2.05c0,.022,0,.044,0,.066Z" transform="translate(-34.449 -21.188)" fill="#f1bb34"/>
              </g>
              <g id="Group_41158" data-name="Group 41158" transform="translate(9.038 9.904)">
                <path id="Path_32013" data-name="Path 32013" d="M37.675,21.188l0,1.377-5.259,3.062,0-1.377Z" transform="translate(-32.413 -21.188)" fill="#f1bb34"/>
              </g>
              <g id="Group_41159" data-name="Group 41159" transform="translate(0 7.638)">
                <path id="Path_32014" data-name="Path 32014" d="M32.969,26.353l0,1.377q-3.629-2.571-4.052-6.042l0-1.377Q29.343,23.784,32.969,26.353Z" transform="translate(-28.913 -20.31)" fill="#f1bb34"/>
              </g>
              <g id="Group_41160" data-name="Group 41160" transform="translate(1.921 14.921)">
                <path id="Path_32015" data-name="Path 32015" d="M31.547,24.222l0,1.377-1.886-1.091,0-1.377Z" transform="translate(-29.657 -23.131)" fill="#f1bb34"/>
              </g>
              <g id="Group_41161" data-name="Group 41161" transform="translate(3.807 14.788)">
                <path id="Path_32016" data-name="Path 32016" d="M32.493,23.079l0,1.377-2.1,1.224,0-1.377Z" transform="translate(-30.387 -23.079)" fill="#f1bb34"/>
              </g>
              <g id="Group_41162" data-name="Group 41162" transform="translate(5.91 12.298)">
                <path id="Path_32017" data-name="Path 32017" d="M46.1,22.115l0,1.377c0,1.023-.783,1.981-2.334,2.885a10.917,10.917,0,0,1-5.991,1.374A15.173,15.173,0,0,1,31.2,25.982l0-1.377a15.176,15.176,0,0,0,6.573,1.768A10.917,10.917,0,0,0,43.769,25c1.551-.9,2.331-1.862,2.334-2.885Z" transform="translate(-31.201 -22.115)" fill="#f1bb34"/>
              </g>
              <g id="Group_41163" data-name="Group 41163" transform="translate(0.004)">
                <path id="Path_32018" data-name="Path 32018" d="M49.7,29.348c.164,1.137-.61,2.2-2.313,3.187A10.917,10.917,0,0,1,41.4,33.909a15.176,15.176,0,0,1-6.573-1.768l-2.1,1.224-1.886-1.091,2.131-1.241q-3.629-2.571-4.052-6.043l4.7-.237a6.484,6.484,0,0,0,2.541,4.424l5.672-3.3q-2.534-2.384-2.8-4.026c-.17-1.091.582-2.129,2.27-3.113a10.938,10.938,0,0,1,5.912-1.378,14.413,14.413,0,0,1,6.386,1.66l1.461-.851,1.886,1.091-1.489.868a9.4,9.4,0,0,1,3.93,4.814l-4.608.461a6.754,6.754,0,0,0-2.507-3.42l-5.494,3.2.086.05q2.6,2.409,2.84,4.117ZM41,31.133a4.4,4.4,0,0,0,2.521-.51c.677-.394,1-.834.972-1.316a4.131,4.131,0,0,0-1.284-2.05l-5.258,3.062a8.3,8.3,0,0,0,3.05.814m4.412-7.35,5.06-2.947a7.17,7.17,0,0,0-2.85-.747,4.352,4.352,0,0,0-2.392.519c-.649.378-.968.8-.951,1.245a3.691,3.691,0,0,0,1.133,1.93" transform="translate(-28.914 -17.353)" fill="#fed44c"/>
              </g>
            </g>
          </g>
        </g>
        <g id="Group_41187" data-name="Group 41187" transform="translate(5.917 14.007)">
          <g id="Group_41171" data-name="Group 41171">
            <g id="Group_41170" data-name="Group 41170">
              <g id="Group_41167" data-name="Group 41167" transform="translate(0 15.756)">
                <path id="Path_32019" data-name="Path 32019" d="M81.116,16.075l-.024,8.509c-.011,4.027-2.651,8.048-7.925,11.119-10.615,6.182-27.894,6.183-38.579,0-5.377-3.111-8.062-7.2-8.051-11.276l.024-8.509C26.55,20,29.236,24.084,34.612,27.195c10.685,6.182,27.964,6.182,38.579,0,5.274-3.071,7.913-7.092,7.925-11.119Z" transform="translate(-26.538 -15.919)" fill="#d6a22b"/>
              </g>
              <g id="Group_41169" data-name="Group 41169" transform="translate(0.024)">
                <path id="Path_32020" data-name="Path 32020" d="M73.051,14.455c10.685,6.182,10.742,16.212.126,22.395s-27.894,6.183-38.579,0-10.741-16.213-.126-22.4,27.894-6.183,38.579,0Z" transform="translate(-26.547 -9.818)" fill="#fed44c"/>
                <g id="Group_41168" data-name="Group 41168" transform="translate(3.466 3.472)">
                  <path id="Path_32021" data-name="Path 32021" d="M69.189,15.338C64.537,12.658,58.3,11.163,51.6,11.163c-6.684,0-12.9,1.479-17.516,4.175-3.993,2.332-6.2,5.219-6.2,8.142a5.416,5.416,0,0,0,.156,1.27c.556-2.453,2.656-4.836,6.042-6.8,4.618-2.7,10.833-4.176,17.516-4.176,6.7,0,12.933,1.5,17.586,4.176,3.42,1.983,5.607,4.454,6.163,6.942a5.725,5.725,0,0,0,.156-1.323c0-2.905-2.309-5.9-6.319-8.229Z" transform="translate(-27.889 -11.163)" fill="#f1bb34"/>
                  <path id="Path_32022" data-name="Path 32022" d="M69.093,16.349c-4.653-2.679-10.885-4.176-17.586-4.176-6.684,0-12.9,1.479-17.516,4.176-3.385,1.966-5.486,4.349-6.042,6.8.556,2.488,2.743,4.975,6.163,6.959C38.765,32.807,45,34.286,51.7,34.286c6.684,0,12.9-1.479,17.516-4.175,3.385-1.984,5.486-4.367,6.041-6.82-.556-2.488-2.743-4.959-6.163-6.942Z" transform="translate(-27.793 -9.564)" fill="#f9c83a"/>
                </g>
              </g>
            </g>
          </g>
          <g id="Group_41186" data-name="Group 41186" transform="translate(11.642 7.539)">
            <g id="Group_41185" data-name="Group 41185">
              <g id="Group_41172" data-name="Group 41172" transform="translate(26.539 1.906)">
                <path id="Path_32023" data-name="Path 32023" d="M42.815,13.476l0,1.377-1.49.868,0-1.377Z" transform="translate(-41.321 -13.476)" fill="#f1bb34"/>
              </g>
              <g id="Group_41173" data-name="Group 41173" transform="translate(15.367 2.732)">
                <path id="Path_32024" data-name="Path 32024" d="M37,16.9l0-1.377c0-.435.32-.841.952-1.209a4.352,4.352,0,0,1,2.392-.519,7.17,7.17,0,0,1,2.85.747l0,1.377a7.174,7.174,0,0,0-2.85-.747,4.35,4.35,0,0,0-2.392.519C37.316,16.063,37,16.469,37,16.9Z" transform="translate(-36.996 -13.795)" fill="#f1bb34"/>
              </g>
              <g id="Group_41174" data-name="Group 41174" transform="translate(17.86 4.629)">
                <path id="Path_32025" data-name="Path 32025" d="M43.459,14.53l0,1.377-5.494,3.2,0-1.377Z" transform="translate(-37.961 -14.53)" fill="#f1bb34"/>
              </g>
              <g id="Group_41175" data-name="Group 41175" transform="translate(23.354 4.629)">
                <path id="Path_32026" data-name="Path 32026" d="M42.6,17.949l0,1.377a6.753,6.753,0,0,0-2.507-3.419l0-1.377A6.752,6.752,0,0,1,42.6,17.949Z" transform="translate(-40.088 -14.53)" fill="#f1bb34"/>
              </g>
              <g id="Group_41176" data-name="Group 41176" transform="translate(25.861 7.588)">
                <path id="Path_32027" data-name="Path 32027" d="M45.671,15.675l0,1.377-4.608.46,0-1.377Z" transform="translate(-41.059 -15.675)" fill="#f1bb34"/>
              </g>
              <g id="Group_41177" data-name="Group 41177" transform="translate(10.089 4.19)">
                <path id="Path_32028" data-name="Path 32028" d="M34.952,15.737l0-1.377a1.949,1.949,0,0,0,.024.306q.267,1.644,2.8,4.026l0,1.377q-2.534-2.384-2.8-4.025a1.922,1.922,0,0,1-.024-.306Z" transform="translate(-34.952 -14.36)" fill="#f1bb34"/>
              </g>
              <g id="Group_41178" data-name="Group 41178" transform="translate(14.297 9.904)">
                <path id="Path_32029" data-name="Path 32029" d="M37.871,18.688l0,1.377c0-.022,0-.044,0-.066a4.131,4.131,0,0,0-1.284-2.05l0-1.377a4.131,4.131,0,0,1,1.284,2.05C37.871,18.644,37.871,18.666,37.871,18.688Z" transform="translate(-36.581 -16.572)" fill="#f1bb34"/>
              </g>
              <g id="Group_41179" data-name="Group 41179" transform="translate(9.038 9.904)">
                <path id="Path_32030" data-name="Path 32030" d="M39.808,16.572l0,1.377-5.259,3.063,0-1.377Z" transform="translate(-34.545 -16.572)" fill="#f1bb34"/>
              </g>
              <g id="Group_41180" data-name="Group 41180" transform="translate(0 7.637)">
                <path id="Path_32031" data-name="Path 32031" d="M35.1,21.737l0,1.377q-3.629-2.571-4.052-6.043l0-1.377Q31.476,19.169,35.1,21.737Z" transform="translate(-31.046 -15.695)" fill="#f1bb34"/>
              </g>
              <g id="Group_41181" data-name="Group 41181" transform="translate(1.921 14.921)">
                <path id="Path_32032" data-name="Path 32032" d="M33.68,19.607l0,1.377-1.886-1.091,0-1.377Z" transform="translate(-31.789 -18.515)" fill="#f1bb34"/>
              </g>
              <g id="Group_41182" data-name="Group 41182" transform="translate(3.807 14.788)">
                <path id="Path_32033" data-name="Path 32033" d="M34.626,18.464l0,1.377-2.1,1.224,0-1.377Z" transform="translate(-32.52 -18.464)" fill="#f1bb34"/>
              </g>
              <g id="Group_41183" data-name="Group 41183" transform="translate(5.91 12.297)">
                <path id="Path_32034" data-name="Path 32034" d="M48.235,17.5l0,1.377c0,1.023-.783,1.981-2.334,2.885a10.919,10.919,0,0,1-5.991,1.374,15.173,15.173,0,0,1-6.573-1.768l0-1.377a15.18,15.18,0,0,0,6.573,1.768A10.92,10.92,0,0,0,45.9,20.384c1.551-.9,2.331-1.862,2.334-2.885Z" transform="translate(-33.334 -17.499)" fill="#f1bb34"/>
              </g>
              <g id="Group_41184" data-name="Group 41184" transform="translate(0.004)">
                <path id="Path_32035" data-name="Path 32035" d="M51.833,24.733c.164,1.137-.61,2.2-2.313,3.187a10.92,10.92,0,0,1-5.991,1.374,15.18,15.18,0,0,1-6.573-1.768l-2.1,1.224-1.886-1.091L35.1,26.418q-3.629-2.571-4.052-6.043l4.7-.236a6.484,6.484,0,0,0,2.541,4.424l5.672-3.3q-2.534-2.384-2.8-4.026c-.17-1.091.582-2.129,2.27-3.113a10.936,10.936,0,0,1,5.912-1.378,14.409,14.409,0,0,1,6.386,1.66l1.461-.851,1.886,1.091-1.489.868a9.4,9.4,0,0,1,3.93,4.814l-4.608.461A6.752,6.752,0,0,0,54.4,17.367l-5.494,3.2.086.05q2.6,2.409,2.84,4.117Zm-8.7,1.784a4.4,4.4,0,0,0,2.521-.51c.677-.394,1-.834.972-1.316a4.131,4.131,0,0,0-1.284-2.05L40.085,25.7a8.3,8.3,0,0,0,3.05.814m4.412-7.35,5.06-2.947a7.17,7.17,0,0,0-2.85-.747,4.352,4.352,0,0,0-2.392.519c-.649.378-.968.8-.951,1.245a3.692,3.692,0,0,0,1.133,1.93" transform="translate(-31.047 -12.738)" fill="#fed44c"/>
              </g>
            </g>
          </g>
        </g>
        <g id="Group_41208" data-name="Group 41208">
          <g id="Group_41192" data-name="Group 41192">
            <g id="Group_41191" data-name="Group 41191">
              <g id="Group_41188" data-name="Group 41188" transform="translate(0 15.756)">
                <path id="Path_32036" data-name="Path 32036" d="M78.826,10.652,78.8,19.161c-.012,4.027-2.651,8.048-7.925,11.119-10.615,6.182-27.894,6.183-38.579,0-5.377-3.111-8.062-7.2-8.051-11.276l.024-8.509c-.011,4.079,2.674,8.165,8.051,11.276,10.685,6.182,27.964,6.182,38.579,0,5.274-3.072,7.914-7.092,7.925-11.119Z" transform="translate(-24.247 -10.495)" fill="#d6a22b"/>
              </g>
              <g id="Group_41190" data-name="Group 41190" transform="translate(0.024)">
                <path id="Path_32037" data-name="Path 32037" d="M70.76,9.031c10.685,6.182,10.742,16.212.126,22.4s-27.894,6.182-38.579,0-10.741-16.213-.126-22.4,27.894-6.182,38.579,0Z" transform="translate(-24.256 -4.395)" fill="#fed44c"/>
                <g id="Group_41189" data-name="Group 41189" transform="translate(3.466 3.472)">
                  <path id="Path_32038" data-name="Path 32038" d="M66.9,9.914C62.246,7.235,56.014,5.739,49.312,5.739c-6.684,0-12.9,1.479-17.516,4.175-3.993,2.332-6.2,5.219-6.2,8.142a5.4,5.4,0,0,0,.156,1.27c.556-2.453,2.656-4.836,6.041-6.8,4.618-2.7,10.833-4.175,17.516-4.175,6.7,0,12.934,1.5,17.586,4.175,3.42,1.983,5.607,4.454,6.163,6.942a5.738,5.738,0,0,0,.156-1.323C73.217,15.238,70.909,12.246,66.9,9.914Z" transform="translate(-25.598 -5.739)" fill="#f1bb34"/>
                  <path id="Path_32039" data-name="Path 32039" d="M66.8,10.925C62.15,8.245,55.918,6.749,49.216,6.749c-6.684,0-12.9,1.479-17.516,4.175-3.385,1.967-5.486,4.349-6.041,6.8.556,2.488,2.743,4.976,6.163,6.959,4.653,2.7,10.885,4.175,17.586,4.175,6.684,0,12.9-1.479,17.516-4.175,3.385-1.983,5.486-4.367,6.042-6.82C72.41,15.379,70.223,12.908,66.8,10.925Z" transform="translate(-25.503 -4.14)" fill="#e8b134"/>
                </g>
              </g>
            </g>
          </g>
          <g id="Group_41207" data-name="Group 41207" transform="translate(11.642 7.539)">
            <g id="Group_41206" data-name="Group 41206">
              <g id="Group_41193" data-name="Group 41193" transform="translate(26.539 1.906)">
                <path id="Path_32040" data-name="Path 32040" d="M40.524,8.052l0,1.377-1.49.868,0-1.377Z" transform="translate(-39.031 -8.052)" fill="#f1bb34"/>
              </g>
              <g id="Group_41194" data-name="Group 41194" transform="translate(15.367 2.732)">
                <path id="Path_32041" data-name="Path 32041" d="M34.7,11.48l0-1.377c0-.435.321-.841.952-1.209a4.352,4.352,0,0,1,2.392-.519,7.175,7.175,0,0,1,2.85.747l0,1.377a7.175,7.175,0,0,0-2.85-.747,4.356,4.356,0,0,0-2.392.519C35.025,10.639,34.706,11.045,34.7,11.48Z" transform="translate(-34.705 -8.372)" fill="#f1bb34"/>
              </g>
              <g id="Group_41195" data-name="Group 41195" transform="translate(17.86 4.629)">
                <path id="Path_32042" data-name="Path 32042" d="M41.168,9.106l0,1.377-5.494,3.2,0-1.377Z" transform="translate(-35.67 -9.106)" fill="#f1bb34"/>
              </g>
              <g id="Group_41196" data-name="Group 41196" transform="translate(23.354 4.629)">
                <path id="Path_32043" data-name="Path 32043" d="M40.309,12.526l0,1.377A6.75,6.75,0,0,0,37.8,10.483l0-1.377A6.749,6.749,0,0,1,40.309,12.526Z" transform="translate(-37.797 -9.106)" fill="#f1bb34"/>
              </g>
              <g id="Group_41197" data-name="Group 41197" transform="translate(25.861 7.588)">
                <path id="Path_32044" data-name="Path 32044" d="M43.381,10.252l0,1.377-4.609.46,0-1.377Z" transform="translate(-38.768 -10.252)" fill="#f1bb34"/>
              </g>
              <g id="Group_41198" data-name="Group 41198" transform="translate(10.089 4.19)">
                <path id="Path_32045" data-name="Path 32045" d="M32.661,10.313l0-1.377a1.954,1.954,0,0,0,.024.306q.267,1.643,2.8,4.025l0,1.377q-2.534-2.384-2.8-4.026a1.953,1.953,0,0,1-.024-.306Z" transform="translate(-32.661 -8.936)" fill="#f1bb34"/>
              </g>
              <g id="Group_41199" data-name="Group 41199" transform="translate(14.297 9.904)">
                <path id="Path_32046" data-name="Path 32046" d="M35.581,13.264l0,1.377c0-.022,0-.044,0-.066a4.131,4.131,0,0,0-1.284-2.05l0-1.377a4.13,4.13,0,0,1,1.284,2.05C35.58,13.221,35.581,13.242,35.581,13.264Z" transform="translate(-34.29 -11.148)" fill="#f1bb34"/>
              </g>
              <g id="Group_41200" data-name="Group 41200" transform="translate(9.038 9.904)">
                <path id="Path_32047" data-name="Path 32047" d="M37.517,11.148l0,1.377-5.258,3.063,0-1.377Z" transform="translate(-32.254 -11.148)" fill="#f1bb34"/>
              </g>
              <g id="Group_41201" data-name="Group 41201" transform="translate(0 7.638)">
                <path id="Path_32048" data-name="Path 32048" d="M32.81,16.314l0,1.377q-3.629-2.571-4.052-6.043l0-1.377Q29.185,13.745,32.81,16.314Z" transform="translate(-28.755 -10.271)" fill="#f1bb34"/>
              </g>
              <g id="Group_41202" data-name="Group 41202" transform="translate(1.921 14.921)">
                <path id="Path_32049" data-name="Path 32049" d="M31.389,14.183l0,1.377L29.5,14.468l0-1.377Z" transform="translate(-29.498 -13.091)" fill="#f1bb34"/>
              </g>
              <g id="Group_41203" data-name="Group 41203" transform="translate(3.807 14.788)">
                <path id="Path_32050" data-name="Path 32050" d="M32.335,13.04l0,1.377-2.1,1.224,0-1.377Z" transform="translate(-30.229 -13.04)" fill="#f1bb34"/>
              </g>
              <g id="Group_41204" data-name="Group 41204" transform="translate(5.91 12.298)">
                <path id="Path_32051" data-name="Path 32051" d="M45.944,12.075l0,1.377c0,1.023-.783,1.982-2.334,2.885a10.919,10.919,0,0,1-5.991,1.374,15.175,15.175,0,0,1-6.573-1.768l0-1.377a15.172,15.172,0,0,0,6.573,1.768A10.917,10.917,0,0,0,43.61,14.96c1.551-.9,2.331-1.862,2.334-2.885Z" transform="translate(-31.043 -12.075)" fill="#f1bb34"/>
              </g>
              <g id="Group_41205" data-name="Group 41205" transform="translate(0.004)">
                <path id="Path_32052" data-name="Path 32052" d="M49.542,19.309c.164,1.137-.61,2.2-2.312,3.187a10.917,10.917,0,0,1-5.991,1.374A15.172,15.172,0,0,1,34.666,22.1l-2.1,1.224-1.887-1.091,2.131-1.241q-3.629-2.571-4.052-6.043l4.7-.237a6.485,6.485,0,0,0,2.542,4.424l5.672-3.3q-2.534-2.384-2.8-4.025c-.17-1.092.581-2.129,2.27-3.113a10.935,10.935,0,0,1,5.912-1.378,14.409,14.409,0,0,1,6.386,1.66L54.9,8.128,56.785,9.22l-1.49.868A9.4,9.4,0,0,1,59.226,14.9l-4.609.46a6.75,6.75,0,0,0-2.507-3.419l-5.494,3.2.086.05q2.6,2.409,2.84,4.117Zm-8.7,1.785a4.4,4.4,0,0,0,2.521-.511c.677-.394,1-.834.972-1.316a4.13,4.13,0,0,0-1.284-2.05L37.794,20.28a8.309,8.309,0,0,0,3.05.814m4.413-7.35,5.06-2.947a7.175,7.175,0,0,0-2.85-.747,4.352,4.352,0,0,0-2.392.519c-.649.378-.968.8-.951,1.245a3.69,3.69,0,0,0,1.133,1.93" transform="translate(-28.756 -7.314)" fill="#fed44c"/>
              </g>
            </g>
          </g>
        </g>
      </g>
      <path id="Path_32053" data-name="Path 32053" d="M45.341,22.184l1.7,2.445-2.445-1.7-1.138,6.3-1.138-6.3-2.445,1.7,1.7-2.445-6.3-1.137,6.3-1.138-1.7-2.445,2.445,1.7,1.138-6.3,1.138,6.3,2.445-1.7-1.7,2.445,6.3,1.138Z" transform="translate(53.241 9.007)" fill="#fff"/>
    </g>
  </g>
</svg>
