<svg xmlns="http://www.w3.org/2000/svg" width="57.442" height="64.091" viewBox="0 0 57.442 64.091">
  <g id="prev_orders" data-name="prev orders" transform="translate(-538.558 -588.498)">
    <g id="Group_41331" data-name="Group 41331">
      <g id="pending_doc2" data-name="pending doc2" transform="matrix(0.485, 0.875, -0.875, 0.485, 581.841, 631.284)">
        <path id="Path_32227" data-name="Path 32227" d="M39.792,48.945a2.5,2.5,0,0,0,2.5,2.5h3.63a2.5,2.5,0,0,0,2.5-2.5V43.812c0-1.383-1.031-6.1-2.413-6.1s-2.594,4.714-2.594,6.1v2.629H42.3A2.5,2.5,0,0,0,39.792,48.945Zm0,0" transform="translate(-39.792 -41.309)" fill="#d6a22b"/>
      </g>
      <g id="pending_doc2-2" data-name="pending doc2" transform="translate(538.558 588.498)">
        <path id="Path_32227-2" data-name="Path 32227" d="M23.895,59.084H10.014a5.013,5.013,0,0,1-5.007-5.007v-37.8a5.013,5.013,0,0,1,5.007-5.007h7.872v1.252a7.511,7.511,0,0,0,15.021,0V11.266h7.886A5.013,5.013,0,0,1,45.8,16.273V27.414a2.5,2.5,0,1,0,5.007,0V16.273A10.026,10.026,0,0,0,40.794,6.259H32.908V2.5A2.5,2.5,0,0,0,30.4,0H20.39a2.5,2.5,0,0,0-2.5,2.5V6.259H10.014A10.025,10.025,0,0,0,0,16.273v37.8A10.025,10.025,0,0,0,10.014,64.091H23.9a2.5,2.5,0,1,0,0-5.007Zm-1-54.077H27.9v7.511a2.5,2.5,0,1,1-5.007,0ZM42.3,33.8A15.146,15.146,0,1,0,57.442,48.944,15.164,15.164,0,0,0,42.3,33.8Zm0,25.286A10.139,10.139,0,1,1,52.435,48.944,10.151,10.151,0,0,1,42.3,59.084ZM48.43,48.944Z"/>
      </g>
    </g>
    <g id="Group_41332" data-name="Group 41332">
      <path id="Path_32229" data-name="Path 32229" d="M7.894,14.789H26.839a1.894,1.894,0,1,0,0-3.789H7.894a1.894,1.894,0,0,0,0,3.789Z" transform="translate(541 600)" fill="#d6a22b"/>
      <path id="Path_32230" data-name="Path 32230" d="M19.261,15H7.894a1.894,1.894,0,0,0,0,3.789H19.261a1.894,1.894,0,1,0,0-3.789Z" transform="translate(541 603.578)" fill="#d6a22b"/>
      <path id="Path_32231" data-name="Path 32231" d="M19.261,19H7.894a1.894,1.894,0,0,0,0,3.789H19.261a1.894,1.894,0,0,0,0-3.789Z" transform="translate(541 607.155)" fill="#d6a22b"/>
      <path id="Path_32232" data-name="Path 32232" d="M19.261,23H7.894a1.894,1.894,0,1,0,0,3.789H19.261a1.894,1.894,0,1,0,0-3.789Z" transform="translate(541 610.733)" fill="#d6a22b"/>
    </g>
  </g>
</svg>
