<svg xmlns="http://www.w3.org/2000/svg" width="64.852" height="63.852" viewBox="0 0 64.852 63.852">
  <g id="profile_info" data-name="profile info" transform="translate(-0.499 1)">
    <path id="Path_32209" data-name="Path 32209" d="M32.662,57.942H7.949a2.5,2.5,0,0,1-1.964-.934,2.565,2.565,0,0,1-.52-2.151A27.126,27.126,0,0,1,31.3,33.378c.207.008.415.013.625.013a16.711,16.711,0,1,0-9.987-3.325A31.927,31.927,0,0,0,.658,53.857a7.459,7.459,0,0,0,7.291,9H32.662a2.455,2.455,0,0,0,0-4.91ZM20.14,16.7A11.785,11.785,0,1,1,32.2,28.477a2.428,2.428,0,0,0-.279-.017c-.192,0-.383,0-.574.006A11.8,11.8,0,0,1,20.14,16.7ZM63.351,50.574A2.455,2.455,0,0,1,60.9,53.03H42.482a2.455,2.455,0,0,1,0-4.91H60.9A2.456,2.456,0,0,1,63.351,50.574ZM42.482,38.3H60.9a2.455,2.455,0,1,1,0,4.91H42.482a2.455,2.455,0,0,1,0-4.91ZM63.351,60.4A2.455,2.455,0,0,1,60.9,62.853H42.482a2.455,2.455,0,0,1,0-4.91H60.9A2.455,2.455,0,0,1,63.351,60.4Zm0,0" transform="translate(2 -1)"/>
    <path id="Path_32210" data-name="Path 32210" d="M32.662,57.942H7.949a2.5,2.5,0,0,1-1.964-.934,2.565,2.565,0,0,1-.52-2.151A27.126,27.126,0,0,1,31.3,33.378c.207.008.415.013.625.013a16.711,16.711,0,1,0-9.987-3.325A31.927,31.927,0,0,0,.658,53.857a7.459,7.459,0,0,0,7.291,9H32.662a2.455,2.455,0,0,0,0-4.91ZM20.14,16.7A11.785,11.785,0,1,1,32.2,28.477a2.428,2.428,0,0,0-.279-.017c-.192,0-.383,0-.574.006A11.8,11.8,0,0,1,20.14,16.7ZM63.351,60.4Z" fill="#d6a22b"/>
  </g>
</svg>
