<svg xmlns="http://www.w3.org/2000/svg" xmlns:xlink="http://www.w3.org/1999/xlink" width="72.417" height="66.479" viewBox="0 0 72.417 66.479">
  <defs>
    <linearGradient id="linear-gradient" x1="0.5" x2="0.5" y2="1" gradientUnits="objectBoundingBox">
      <stop offset="0" stop-color="#d6a22b"/>
      <stop offset="1" stop-color="#b07e0a"/>
    </linearGradient>
  </defs>
  <g id="svgexport-6" transform="translate(0 -20.992)">
    <g id="Group_41307" data-name="Group 41307" transform="translate(1.426 22.418)">
      <path id="Path_32192" data-name="Path 32192" d="M13.732,295.758a3.528,3.528,0,0,0-3.647,3.372v19.025a3.525,3.525,0,0,0,3.647,3.368h3.9a3.525,3.525,0,0,0,3.647-3.368V299.13a3.528,3.528,0,0,0-3.647-3.372h-3.9Z" transform="translate(-10.085 -258.321)" fill="#e8b134" fill-rule="evenodd"/>
      <path id="Path_32193" data-name="Path 32193" d="M119.228,309.79H96.78a9.706,9.706,0,0,0-7.551,3.617v14.562l11.05,4.956c2.621.962,6.5,1.014,15.819,1.062,7.519.008,8.5.008,9.928.008,3.483,0,4.849-.325,6.489-1.945l13.771-12.722a3.947,3.947,0,0,0,0-5.882,4.809,4.809,0,0,0-5.154-.8,4.484,4.484,0,0,0-1.218.8l-9.647,8.909c-.8.738-2.433.946-4.224.942-4.421-.012-11.535-.024-15.955-.032a3.179,3.179,0,1,1,0-6.339h9.142a3.732,3.732,0,0,0,3.864-3.568,3.321,3.321,0,0,0-.457-1.68,3.924,3.924,0,0,0-3.407-1.888Z" transform="translate(-78.035 -270.369)" fill="#ffdcd5" fill-rule="evenodd"/>
      <path id="Path_32194" data-name="Path 32194" d="M138.174,88.585a18.337,18.337,0,0,1-6.364,7.237,1.73,1.73,0,0,1-2.369,0,12.647,12.647,0,0,1-1.888-1.383,24.741,24.741,0,0,0-.1,16.6,9.506,9.506,0,0,1,.958-.048h22.448a3.924,3.924,0,0,1,3.407,1.888,3.319,3.319,0,0,1,.457,1.68,3.733,3.733,0,0,1-3.864,3.568h-9.142a3.179,3.179,0,1,0,0,6.339c4.421.008,11.535.02,15.955.032,1.791,0,3.427-.2,4.224-.942l9.647-8.909a4.489,4.489,0,0,1,1.218-.8,24.642,24.642,0,0,0-32.107-33.467,20.345,20.345,0,0,1-2.477,8.2Z" transform="translate(-109.662 -71.573)" fill-rule="evenodd" fill="url(#linear-gradient)"/>
      <path id="Path_32195" data-name="Path 32195" d="M92.769,31.074l-9.25,4.992c-1.206.649-1.535.81-1.547,2.265a21.189,21.189,0,0,0,2.7,10.06,22.383,22.383,0,0,0,4.8,6.287A14.286,14.286,0,0,0,91.5,56.161a1.858,1.858,0,0,0,2.541,0,19.682,19.682,0,0,0,6.825-7.77,21.8,21.8,0,0,0,2.661-8.8c.028-.421.04-.842.036-1.259-.012-1.455-.337-1.616-1.543-2.265Z" transform="translate(-71.803 -31.074)" fill="#fff" fill-rule="evenodd"/>
    </g>
    <path id="Path_32196" data-name="Path 32196" d="M70.645,64.449a6.076,6.076,0,0,0-3.777-1.577,26.112,26.112,0,0,0-3.392-24.559A1.426,1.426,0,1,0,61.177,40a23.239,23.239,0,0,1,2.268,23.643,5.82,5.82,0,0,0-1.108.8l-9.648,8.91c-.143.133-.8.563-3.206.563h-.046c-3.787-.01-9.551-.021-13.906-.028l-2.054,0a1.889,1.889,0,0,1-2-1.741,1.914,1.914,0,0,1,2-1.745h9.142a5.154,5.154,0,0,0,5.29-4.995,4.739,4.739,0,0,0-.061-.755,6.46,6.46,0,0,0-2.616-12.347h-5.5a3.608,3.608,0,0,1,0-7.215H50.222a1.426,1.426,0,1,0,0-2.853H43.881l.008-3.434a1.426,1.426,0,0,0-1.423-1.43h0A1.427,1.427,0,0,0,41.037,38.8l-.008,3.441h-1.3a6.46,6.46,0,0,0,0,12.921h5.5a3.6,3.6,0,0,1,1.337,6.932,5.417,5.417,0,0,0-3.95-1.677H20.235a23.353,23.353,0,0,1-.363-12.008q.256.168.517.324a3.924,3.924,0,0,0,2,.705,3.943,3.943,0,0,0,2-.7,20.862,20.862,0,0,0,7.351-8.321,23.719,23.719,0,0,0,2.745-8.482,23.246,23.246,0,0,1,17.385.579,1.426,1.426,0,0,0,1.16-2.606,26.115,26.115,0,0,0-18.473-1.013c-.2-1.55-1-2.065-2.208-2.714l-9.284-5.01a1.427,1.427,0,0,0-1.355,0l-9.289,5.012c-1.388.747-2.239,1.315-2.257,3.487A22.6,22.6,0,0,0,13.035,40.41a24.5,24.5,0,0,0,4.405,6.029,26.193,26.193,0,0,0-.073,14.332A11.154,11.154,0,0,0,13.951,62.3a5.017,5.017,0,0,0-4.978-3.873h-3.9A4.947,4.947,0,0,0,0,63.227V82.252a4.945,4.945,0,0,0,5.074,4.794h3.9a4.945,4.945,0,0,0,5.074-4.794v-.03l9.04,4.054c.03.014.061.026.092.037,2.8,1.029,6.377,1.1,16.309,1.15,7.52.008,8.5.008,9.929.008,3.591,0,5.428-.325,7.474-2.339q6.386-5.9,12.775-11.8l.978-.9a5.375,5.375,0,0,0,0-7.977Zm-59.451,17.8a2.1,2.1,0,0,1-2.221,1.942h-3.9a2.1,2.1,0,0,1-2.221-1.942V63.227a2.125,2.125,0,0,1,2.221-1.946h3.9a2.125,2.125,0,0,1,2.221,1.946V82.252Zm4.355-43.191a19.753,19.753,0,0,1-2.528-9.374,2.841,2.841,0,0,1,.045-.586,6.92,6.92,0,0,1,.712-.413l8.614-4.649,8.574,4.627.035.019a6.925,6.925,0,0,1,.713.414,2.887,2.887,0,0,1,.045.591,19.707,19.707,0,0,1-2.528,9.371,18.1,18.1,0,0,1-6.3,7.22,4.143,4.143,0,0,1-.541.289,4.163,4.163,0,0,1-.536-.288h0A18.354,18.354,0,0,1,15.549,39.061ZM68.709,70.33l-.978.9q-6.4,5.911-12.793,11.819l-.034.033c-1.2,1.188-2.068,1.533-5.486,1.533-1.427,0-2.408,0-9.92-.008-9.091-.047-12.907-.1-15.29-.959l-10.16-4.557V65.971a8.21,8.21,0,0,1,6.124-2.705H42.62a2.5,2.5,0,0,1,2.156,1.146c.008.014.015.029.023.043a1.92,1.92,0,0,1,.258.954A2.306,2.306,0,0,1,42.62,67.55H33.478a4.6,4.6,0,1,0,0,9.192l2.051,0c4.353.008,10.116.018,13.9.028h.052c2.534,0,4.17-.42,5.144-1.321l9.648-8.91a3.366,3.366,0,0,1,4.437,0,2.523,2.523,0,0,1,0,3.786Z"/>
    <path id="Path_32197" data-name="Path 32197" d="M401.023,109.718a1.426,1.426,0,0,0,1.009-2.435l0,0a1.426,1.426,0,1,0-1,2.439Z" transform="translate(-343.077 -73.725)"/>
    <path id="Path_32198" data-name="Path 32198" d="M130.491,96.616a1.423,1.423,0,0,0,1.022-.431l5.034-5.164A1.426,1.426,0,0,0,134.5,89.03l-4.058,4.163-1.408-1.318a1.426,1.426,0,0,0-1.95,2.083l2.429,2.273A1.422,1.422,0,0,0,130.491,96.616Z" transform="translate(-108.725 -58.045)"/>
  </g>
</svg>
