<svg xmlns="http://www.w3.org/2000/svg" xmlns:xlink="http://www.w3.org/1999/xlink" width="47.862" height="43.937" viewBox="0 0 47.862 43.937">
  <defs>
    <linearGradient id="linear-gradient" x1="0.5" x2="0.5" y2="1" gradientUnits="objectBoundingBox">
      <stop offset="0" stop-color="#d6a22b"/>
      <stop offset="1" stop-color="#b07e0a"/>
    </linearGradient>
  </defs>
  <g id="svgexport-6" transform="translate(0 -20.992)">
    <g id="Group_41307" data-name="Group 41307" transform="translate(0.943 21.935)">
      <path id="Path_32192" data-name="Path 32192" d="M12.5,295.758a2.332,2.332,0,0,0-2.41,2.229v12.574a2.33,2.33,0,0,0,2.41,2.226h2.577a2.33,2.33,0,0,0,2.41-2.226V297.987a2.332,2.332,0,0,0-2.41-2.229H12.5Z" transform="translate(-10.085 -271.015)" fill="#e8b134" fill-rule="evenodd"/>
      <path id="Path_32193" data-name="Path 32193" d="M109.056,309.79H94.22a6.414,6.414,0,0,0-4.991,2.39V321.8l7.3,3.275c1.732.636,4.3.67,10.455.7,4.969.005,5.618.005,6.561.005,2.3,0,3.205-.215,4.289-1.285l9.1-8.408a2.609,2.609,0,0,0,0-3.887,3.179,3.179,0,0,0-3.407-.53,2.964,2.964,0,0,0-.805.53l-6.376,5.888a4.424,4.424,0,0,1-2.792.623c-2.922-.008-7.624-.016-10.545-.021a2.1,2.1,0,1,1,0-4.19h6.042a2.467,2.467,0,0,0,2.554-2.358,2.2,2.2,0,0,0-.3-1.11,2.594,2.594,0,0,0-2.252-1.248Z" transform="translate(-81.831 -283.736)" fill="#ffdcd5" fill-rule="evenodd"/>
      <path id="Path_32194" data-name="Path 32194" d="M134.068,85.079a12.119,12.119,0,0,1-4.206,4.783,1.143,1.143,0,0,1-1.566,0,8.358,8.358,0,0,1-1.248-.914,16.352,16.352,0,0,0-.069,10.973,6.284,6.284,0,0,1,.633-.032h14.837a2.593,2.593,0,0,1,2.252,1.248,2.194,2.194,0,0,1,.3,1.11,2.467,2.467,0,0,1-2.554,2.359h-6.042a2.1,2.1,0,1,0,0,4.19c2.922.005,7.624.013,10.545.021a4.424,4.424,0,0,0,2.792-.623l6.376-5.888a2.967,2.967,0,0,1,.805-.53,16.287,16.287,0,0,0-21.22-22.119,13.446,13.446,0,0,1-1.637,5.422Z" transform="translate(-115.224 -73.835)" fill-rule="evenodd" fill="url(#linear-gradient)"/>
      <path id="Path_32195" data-name="Path 32195" d="M89.107,31.074l-6.114,3.3c-.8.429-1.015.535-1.022,1.5a14,14,0,0,0,1.783,6.649,14.794,14.794,0,0,0,3.171,4.155,9.442,9.442,0,0,0,1.343.981,1.228,1.228,0,0,0,1.679,0,13.008,13.008,0,0,0,4.511-5.136A14.408,14.408,0,0,0,96.217,36.7c.019-.278.026-.556.024-.832-.008-.962-.222-1.068-1.02-1.5Z" transform="translate(-75.251 -31.074)" fill="#fff" fill-rule="evenodd"/>
    </g>
    <path id="Path_32196" data-name="Path 32196" d="M46.691,49.714a4.016,4.016,0,0,0-2.5-1.042A17.258,17.258,0,0,0,41.953,32.44a.943.943,0,1,0-1.52,1.116,15.359,15.359,0,0,1,1.5,15.626,3.846,3.846,0,0,0-.732.531L34.823,55.6c-.095.088-.527.372-2.119.372h-.03c-2.5-.007-6.313-.014-9.191-.019l-1.357,0A1.248,1.248,0,0,1,20.8,54.8a1.265,1.265,0,0,1,1.325-1.153h6.042a3.407,3.407,0,0,0,3.5-3.3,3.132,3.132,0,0,0-.04-.5,4.27,4.27,0,0,0-1.729-8.16H26.258a2.384,2.384,0,0,1,0-4.769h6.935a.943.943,0,1,0,0-1.885H29l.006-2.269a.943.943,0,0,0-.94-.945h0a.943.943,0,0,0-.943.94l-.006,2.274h-.858a4.27,4.27,0,0,0,0,8.54H29.9a2.381,2.381,0,0,1,.883,4.581,3.58,3.58,0,0,0-2.611-1.108H13.374a15.434,15.434,0,0,1-.24-7.936q.169.111.341.214a2.594,2.594,0,0,0,1.323.466,2.606,2.606,0,0,0,1.325-.466,13.789,13.789,0,0,0,4.858-5.5A15.676,15.676,0,0,0,22.8,28.219a15.364,15.364,0,0,1,11.49.383.943.943,0,1,0,.767-1.723,17.26,17.26,0,0,0-12.21-.669c-.133-1.024-.662-1.365-1.46-1.794l-6.136-3.311a.943.943,0,0,0-.9,0L8.212,24.418a2.2,2.2,0,0,0-1.492,2.3,14.938,14.938,0,0,0,1.895,7.1,16.192,16.192,0,0,0,2.912,3.985,17.311,17.311,0,0,0-.048,9.472,7.372,7.372,0,0,0-2.258,1.012,3.316,3.316,0,0,0-3.29-2.559H3.353A3.27,3.27,0,0,0,0,48.906V61.48a3.269,3.269,0,0,0,3.353,3.169H5.931A3.269,3.269,0,0,0,9.284,61.48v-.02l5.975,2.68.061.025c1.851.68,4.215.726,10.779.76,4.97.005,5.619.005,6.562.005,2.373,0,3.587-.215,4.94-1.546q4.221-3.9,8.444-7.8l.646-.6a3.552,3.552,0,0,0,0-5.272ZM7.4,61.48a1.386,1.386,0,0,1-1.468,1.283H3.353A1.386,1.386,0,0,1,1.886,61.48V48.906A1.4,1.4,0,0,1,3.353,47.62H5.931A1.4,1.4,0,0,1,7.4,48.906V61.48Zm2.878-28.546a13.055,13.055,0,0,1-1.671-6.2,1.878,1.878,0,0,1,.03-.388,4.573,4.573,0,0,1,.47-.273L14.8,23.006l5.667,3.058.023.013a4.576,4.576,0,0,1,.471.273,1.908,1.908,0,0,1,.029.39,13.025,13.025,0,0,1-1.671,6.194,11.965,11.965,0,0,1-4.163,4.772,2.737,2.737,0,0,1-.357.191,2.751,2.751,0,0,1-.354-.19h0A12.131,12.131,0,0,1,10.277,32.934ZM45.411,53.6l-.647.6q-4.23,3.907-8.455,7.811l-.023.022c-.794.785-1.366,1.013-3.626,1.013-.943,0-1.592,0-6.556-.005C20.1,63.008,17.574,62.972,16,62.4L9.284,59.393V50.72a5.426,5.426,0,0,1,4.048-1.788H28.168a1.651,1.651,0,0,1,1.425.757l.015.028a1.269,1.269,0,0,1,.171.63,1.524,1.524,0,0,1-1.611,1.416H22.126a3.042,3.042,0,1,0,0,6.075l1.356,0c2.877.005,6.686.012,9.189.019H32.7a4.933,4.933,0,0,0,3.4-.873L42.479,51.1a2.225,2.225,0,0,1,2.932,0,1.668,1.668,0,0,1,0,2.5Z"/>
    <path id="Path_32197" data-name="Path 32197" d="M400.539,108.75a.943.943,0,0,0,.667-1.609l0,0a.943.943,0,1,0-.664,1.612Z" transform="translate(-362.241 -77.843)"/>
    <path id="Path_32198" data-name="Path 32198" d="M129.184,93.9a.94.94,0,0,0,.675-.285l3.327-3.413a.943.943,0,0,0-1.35-1.316l-2.682,2.752-.931-.871a.943.943,0,0,0-1.289,1.377l1.605,1.5A.94.94,0,0,0,129.184,93.9Z" transform="translate(-114.798 -61.287)"/>
  </g>
</svg>
