<svg xmlns="http://www.w3.org/2000/svg" xmlns:xlink="http://www.w3.org/1999/xlink" width="123.372" height="123.379" viewBox="0 0 123.372 123.379">
  <defs>
    <linearGradient id="linear-gradient" x1="0.5" x2="0.5" y2="1" gradientUnits="objectBoundingBox">
      <stop offset="0" stop-color="#484848"/>
      <stop offset="1" stop-color="#0e0e0e"/>
    </linearGradient>
  </defs>
  <g id="write" transform="translate(2.99 -0.005)">
    <path id="Path_32149" data-name="Path 32149" d="M248.074,47.531h.021L285.7,37.444a4.166,4.166,0,0,1,5.085,2.947L296.143,60.4l2.428,9.07v.021l11.415,42.548a4.151,4.151,0,0,1-2.927,5.084l-22.893,6.123Zm0,0" transform="translate(-189.747 -28.531)" fill="#d6a22b"/>
    <path id="Path_32150" data-name="Path 32150" d="M23.505,44.849a4.036,4.036,0,0,1,3.321-.54l80.2,21.482a4.151,4.151,0,0,1,2.927,5.084l-21.482,80.2A4.152,4.152,0,0,1,83.384,154l-80.2-21.482A4.15,4.15,0,0,1,.26,127.434L17.528,62.968Zm0,0" transform="translate(-0.089 -33.777)" fill="#e8b134" stroke="#000" stroke-width="6"/>
    <g id="Group_41243" data-name="Group 41243" transform="translate(14.74 34.656)">
      <path id="Path_32151" data-name="Path 32151" d="M296.442,159.434a2.039,2.039,0,0,1-.537-.07l-29.523-7.9a2.076,2.076,0,0,1,1.076-4.01l29.522,7.912a2.075,2.075,0,0,1-.535,4.081Zm0,0" transform="translate(-217.315 -147.381)"/>
      <path id="Path_32152" data-name="Path 32152" d="M313.442,218.866a2.086,2.086,0,0,1-.537-.071l-20.07-5.37a2.075,2.075,0,1,1,1.073-4.01l20.07,5.37a2.075,2.075,0,0,1-.535,4.081Zm0,0" transform="translate(-237.539 -194.774)"/>
      <path id="Path_32153" data-name="Path 32153" d="M283.861,265.737a2.1,2.1,0,0,1-.54-.071l-24.968-6.7a2.076,2.076,0,1,1,1.077-4.01l24.968,6.7a2.076,2.076,0,0,1-.537,4.081Zm0,0" transform="translate(-211.173 -229.607)"/>
      <path id="Path_32154" data-name="Path 32154" d="M84.5,267.162a2.053,2.053,0,0,1-.539-.07l-6.019-1.613a2.076,2.076,0,0,1,1.077-4.01l6.019,1.612a2.076,2.076,0,0,1-.538,4.081Zm0,0" transform="translate(-73.182 -234.591)"/>
      <path id="Path_32155" data-name="Path 32155" d="M201.351,298.438a2.084,2.084,0,0,1-.537-.071L154.7,286a2.076,2.076,0,1,1,1.075-4.01l46.11,12.353a2.076,2.076,0,0,1-.535,4.081Zm0,0" transform="translate(-131.894 -250.289)"/>
      <path id="Path_32156" data-name="Path 32156" d="M70.789,318.325a2.01,2.01,0,0,1-.538-.071l-6.018-1.61a2.076,2.076,0,1,1,1.075-4.01l6.019,1.61a2.076,2.076,0,0,1-.537,4.081Zm0,0" transform="translate(-62.693 -273.725)"/>
      <path id="Path_32157" data-name="Path 32157" d="M187.646,349.632a2.079,2.079,0,0,1-.537-.071L141,337.205a2.076,2.076,0,0,1,1.076-4.01l46.11,12.356a2.076,2.076,0,0,1-.535,4.081Zm0,0" transform="translate(-121.41 -289.453)"/>
    </g>
    <path id="Path_32158" data-name="Path 32158" d="M211.259,213.9l-13.677-4.566,11.748-11.748,4.566,13.678a2.09,2.09,0,0,1-2.636,2.636Zm0,0" transform="translate(-151.127 -151.127)" fill="#e6e7e8"/>
    <path id="Path_32159" data-name="Path 32159" d="M20.054,8.312,8.306,20.059,2.433,14.185A8.306,8.306,0,1,1,14.181,2.438Zm0,0" transform="translate(0)"/>
    <path id="Path_32160" data-name="Path 32160" d="M104.334,92.591l-4.4,4.4v.021l-2.927,2.926h-.02l-4.4,4.4L60.312,72.064l4.42-4.4,2.927-2.926,4.4-4.421Zm0,0" transform="translate(-46.132 -46.131)" fill="url(#linear-gradient)"/>
    <path id="Path_32161" data-name="Path 32161" d="M35.336,47.084,47.083,35.336l5.873,5.874L41.209,52.957Zm0,0" transform="translate(-27.028 -27.024)" fill="#e6e7e8"/>
    <path id="Path_32162" data-name="Path 32162" d="M89.367,89.374a2.124,2.124,0,0,1-1.473.6,2.079,2.079,0,0,1-1.453-.6l-7.327-7.327,2.927-2.926,7.326,7.326A2.076,2.076,0,0,1,89.367,89.374Zm0,0" transform="translate(-60.513 -60.514)" fill="#d6a22b"/>
    <path id="Path_32163" data-name="Path 32163" d="M155.2,152.265v.021l-2.927,2.926h-.02l-19.074-19.074a2.084,2.084,0,0,1,2.947-2.947Zm0,0" transform="translate(-101.402 -101.405)" fill="#d6a22b"/>
  </g>
</svg>
