<svg xmlns="http://www.w3.org/2000/svg" xmlns:xlink="http://www.w3.org/1999/xlink" width="120.64" height="120.362" viewBox="0 0 120.64 120.362">
  <defs>
    <linearGradient id="linear-gradient" x1="0.5" x2="0.5" y2="1" gradientUnits="objectBoundingBox">
      <stop offset="0" stop-color="#d6a22b"/>
      <stop offset="1" stop-color="#b07e0a"/>
    </linearGradient>
    <linearGradient id="linear-gradient-3" x1="0.5" x2="0.5" y2="1" gradientUnits="objectBoundingBox">
      <stop offset="0" stop-color="#484848"/>
      <stop offset="1" stop-color="#0e0e0e"/>
    </linearGradient>
  </defs>
  <g id="zoom" transform="translate(0 -0.588)">
    <g id="Group_41245" data-name="Group 41245" transform="translate(0 0.588)">
      <path id="Path_32164" data-name="Path 32164" d="M120.561,104.438H23.013A8.013,8.013,0,0,1,15,96.425V23.6a8.013,8.013,0,0,1,8.013-8.013h97.548a8.013,8.013,0,0,1,8.013,8.013V96.425A8.013,8.013,0,0,1,120.561,104.438Z" transform="translate(-11.467 -12.055)" fill="url(#linear-gradient)"/>
      <path id="Path_32165" data-name="Path 32165" d="M304.831,15.588H256.044v88.85h48.787a8.013,8.013,0,0,0,8.013-8.013V23.6a8.013,8.013,0,0,0-8.013-8.013Z" transform="translate(-195.737 -12.055)" fill="#fff"/>
      <path id="Path_32166" data-name="Path 32166" d="M15,204.2v36.412a8.013,8.013,0,0,0,8.013,8.013H120.56a8.013,8.013,0,0,0,8.013-8.013V204.2Z" transform="translate(-11.467 -156.245)" fill="#fff"/>
      <path id="Path_32167" data-name="Path 32167" d="M256.044,204.2v44.425h48.787a8.013,8.013,0,0,0,8.013-8.013V204.2Z" transform="translate(-195.737 -156.245)" fill="url(#linear-gradient)"/>
      <path id="Path_32168" data-name="Path 32168" d="M173.041,417.284l3.842-24.466h31.3l3.448,24.463Z" transform="translate(-132.284 -300.435)" fill="url(#linear-gradient-3)"/>
      <path id="Path_32169" data-name="Path 32169" d="M256.044,417.289h19.042l-3.448-24.463H256.044Z" transform="translate(-195.737 -300.439)" fill="url(#linear-gradient-3)"/>
      <g id="Group_41244" data-name="Group 41244" transform="translate(28.841 113.296)">
        <path id="Path_32170" data-name="Path 32170" d="M181.874,488.674H125.982a3.533,3.533,0,1,1,0-7.066h55.892a3.533,3.533,0,1,1,0,7.066Z" transform="translate(-122.449 -481.608)"/>
      </g>
      <path id="Path_32171" data-name="Path 32171" d="M284,481.608H256.044v7.066H284a3.533,3.533,0,0,0,0-7.066Z" transform="translate(-195.737 -368.312)"/>
      <circle id="Ellipse_140" data-name="Ellipse 140" cx="8.157" cy="8.157" r="8.157" transform="translate(79.725 59.22)" fill="#ffa64d"/>
      <path id="Path_32172" data-name="Path 32172" d="M373.119,252.019v16.314a8.157,8.157,0,0,0,0-16.314Z" transform="translate(-285.237 -192.799)" fill="#f93"/>
      <path id="Path_32173" data-name="Path 32173" d="M334.344,326.637h-10.7v0a8.235,8.235,0,0,0-8.17,8.234v1.849a2.156,2.156,0,0,0,2.157,2.157h22.8a2.157,2.157,0,0,0,2.157-2.157v-1.849A8.236,8.236,0,0,0,334.344,326.637Z" transform="translate(-241.167 -249.842)" fill="#fff"/>
      <path id="Path_32174" data-name="Path 32174" d="M378.413,326.637h-5.295v12.241h11.374a2.156,2.156,0,0,0,2.157-2.157v-1.849A8.236,8.236,0,0,0,378.413,326.637Z" transform="translate(-285.236 -249.841)" fill="#e6e7e8"/>
      <circle id="Ellipse_141" data-name="Ellipse 141" cx="8.157" cy="8.157" r="8.157" transform="translate(24.746 59.22)" fill="#fc9"/>
      <path id="Path_32175" data-name="Path 32175" d="M139.7,252.019v16.314a8.157,8.157,0,0,0,0-16.314Z" transform="translate(-106.792 -192.799)" fill="#ffb366"/>
      <path id="Path_32176" data-name="Path 32176" d="M100.92,326.637h-10.7v0a8.235,8.235,0,0,0-8.17,8.234v1.849a2.156,2.156,0,0,0,2.157,2.157H107a2.156,2.156,0,0,0,2.157-2.157v-1.849A8.236,8.236,0,0,0,100.92,326.637Z" transform="translate(-62.722 -249.842)" fill="#e8b134"/>
      <path id="Path_32177" data-name="Path 32177" d="M144.989,326.637h-5.295v12.241h11.374a2.156,2.156,0,0,0,2.157-2.157v-1.849A8.236,8.236,0,0,0,144.989,326.637Z" transform="translate(-106.791 -249.841)" fill="#d6a22b"/>
      <circle id="Ellipse_142" data-name="Ellipse 142" cx="8.157" cy="8.157" r="8.157" transform="translate(79.725 18.139)" fill="#ffa64d"/>
      <path id="Path_32178" data-name="Path 32178" d="M373.119,77.6V93.913a8.157,8.157,0,0,0,0-16.314Z" transform="translate(-285.237 -59.46)" fill="#f93"/>
      <path id="Path_32179" data-name="Path 32179" d="M334.344,152.217h-10.7v0a8.235,8.235,0,0,0-8.17,8.234V162.3a2.156,2.156,0,0,0,2.157,2.157h22.8a2.156,2.156,0,0,0,2.157-2.157v-1.849A8.236,8.236,0,0,0,334.344,152.217Z" transform="translate(-241.167 -116.503)" fill="#e8b134"/>
      <path id="Path_32180" data-name="Path 32180" d="M378.413,152.217h-5.295v12.241h11.374a2.156,2.156,0,0,0,2.157-2.157v-1.849A8.236,8.236,0,0,0,378.413,152.217Z" transform="translate(-285.236 -116.503)" fill="#d6a22b"/>
      <circle id="Ellipse_143" data-name="Ellipse 143" cx="8.157" cy="8.157" r="8.157" transform="translate(24.746 18.139)" fill="#fc9"/>
      <path id="Path_32181" data-name="Path 32181" d="M139.7,77.6V93.913a8.157,8.157,0,0,0,0-16.314Z" transform="translate(-106.792 -59.46)" fill="#ffb366"/>
      <path id="Path_32182" data-name="Path 32182" d="M100.92,152.217h-10.7v0a8.235,8.235,0,0,0-8.17,8.234V162.3a2.156,2.156,0,0,0,2.157,2.157H107a2.156,2.156,0,0,0,2.157-2.157v-1.849A8.236,8.236,0,0,0,100.92,152.217Z" transform="translate(-62.722 -116.503)" fill="#fff"/>
      <path id="Path_32183" data-name="Path 32183" d="M144.989,152.217h-5.295v12.241h11.374a2.156,2.156,0,0,0,2.157-2.157v-1.849A8.236,8.236,0,0,0,144.989,152.217Z" transform="translate(-106.791 -116.503)" fill="#e6e7e8"/>
      <path id="Path_32184" data-name="Path 32184" d="M110.027,96.5H10.612A10.612,10.612,0,0,1,0,85.892V11.2A10.612,10.612,0,0,1,10.612.588h99.415A10.612,10.612,0,0,1,120.64,11.2V85.892A10.612,10.612,0,0,1,110.027,96.5ZM10.612,7.654A3.546,3.546,0,0,0,7.066,11.2V85.892a3.546,3.546,0,0,0,3.546,3.546h99.415a3.546,3.546,0,0,0,3.546-3.546V11.2a3.546,3.546,0,0,0-3.546-3.546H10.612Z" transform="translate(0 -0.588)" fill="url(#linear-gradient-3)"/>
      <path id="Path_32185" data-name="Path 32185" d="M306.654.588h-50.61V7.654h50.61a2.656,2.656,0,0,1,2.656,2.656V85.67a3.768,3.768,0,0,1-3.768,3.768h-49.5V96.5h50.61a9.722,9.722,0,0,0,9.722-9.722V10.31A9.722,9.722,0,0,0,306.654.588Z" transform="translate(-195.737 -0.588)" fill="url(#linear-gradient-3)"/>
    </g>
  </g>
</svg>
